<svg xmlns="http://www.w3.org/2000/svg" xmlns:xlink="http://www.w3.org/1999/xlink" shape-rendering="geometricPrecision" text-rendering="geometricPrecision" width="1113.5799560546875" height="784.4099731445312" style=""><rect id="backgroundrect" width="100%" height="100%" x="0" y="0" fill="none" stroke="none"/><defs><linearGradient id="ejgg26skrzf42-fill" x1="0.9998277425765991" y1="0.5000004172325134" x2="0.00018707345589064062" y2="0.5000004172325134" spreadMethod="pad"><stop id="ejgg26skrzf42-fill-0" offset="0%" stop-color="rgba(128,128,128,0.25)"/><stop id="ejgg26skrzf42-fill-1" offset="54%" stop-color="rgba(128,128,128,0.12)"/><stop id="ejgg26skrzf42-fill-2" offset="100%" stop-color="rgba(128,128,128,0.1)"/></linearGradient></defs><g class="currentLayer" style=""><title>Layer 1</title><ellipse id="ejgg26skrzf2" rx="64" ry="16.989999771118164" transform="matrix(1,0,0,1,965,767.42) " opacity="0.1" fill="rgb(108,99,255)" stroke="none" stroke-width="1"/><g id="ejgg26skrzf3" opacity="0.1"><path id="ejgg26skrzf4" d="M555.5,549.35 Q555.56,550.76 555.7099999999999,552.11 Q567.38,547.46 578.62,542.11 C582.618928,541.5794030000001 586.336328,539.761071 589.2099999999999,536.9300000000001 C591.4,535.83 593.5799999999999,534.6800000000001 595.74,533.5300000000001 C595.251218,532.495619 594.696752,531.4935710000001 594.0799999999999,530.5300000000001 C589.87,523.88 583.4699999999999,519.72 576.42,519.95 C569.37,520.1800000000001 563.27,524.75 559.5,531.64 C556.6075199999999,537.0796310000001 555.226242,543.195239 555.5,549.35 z" fill="rgb(63,61,86)" stroke="none" stroke-width="1"/><path id="ejgg26skrzf5" d="M554.3499999999999,514.38 C554.500788,520.5078110000001 556.2781729999999,526.485344 559.5,531.7 C563.7199999999999,538.33 570.12,542.49 577.17,542.26 C577.66,542.26 578.17,542.19 578.62,542.1500000000001 C582.618928,541.619403 586.336328,539.8010710000001 589.2099999999999,536.97 C591.160322,535.114085 592.8040599999999,532.960687 594.0799999999999,530.59 C599.8173879999999,519.5200590000001 599.385591,506.263124 592.9399999999999,495.59 C588.7199999999999,488.94 582.3199999999999,484.78000000000003 575.27,485.00999999999993 C568.2199999999999,485.23999999999995 562.13,489.81 558.36,496.7 C555.469755,502.129968 554.085201,508.234436 554.3499999999999,514.38 z" fill="rgb(63,61,86)" stroke="none" stroke-width="1"/><ellipse id="ejgg26skrzf6" rx="21.8700008392334" ry="28.6299991607666" transform="matrix(0.999462,-0.032806,0.032806,0.999462,575.0771282399999,478.67808008) " fill="rgb(63,61,86)" stroke="none" stroke-width="1"/></g><g id="ejgg26skrzf7" opacity="0.1" class=""><path id="ejgg26skrzf8" d="M326.18,733.5600000000001 C326.18,734.22 326.11,734.88 326.03000000000003,735.5600000000001 Q317.73,732.26 309.72,728.49 C306.87477900000005,728.1180410000001 304.22803600000003,726.829772 302.18,724.82 Q299.84000000000003,723.63 297.53000000000003,722.4000000000001 C297.877522,721.6687900000001 298.27166700000004,720.9606640000001 298.71000000000004,720.2800000000001 C301.71000000000004,715.5400000000001 306.25,712.58 311.27000000000004,712.74 C316.29,712.9000000000001 320.63,716.14 323.27000000000004,721.0400000000001 C325.33697700000005,724.8799710000001 326.34155100000004,729.2020560000001 326.18,733.5600000000001 z" fill="rgb(63,61,86)" stroke="none" stroke-width="1"/><path id="ejgg26skrzf9" d="M326.96000000000004,708.6700000000001 C326.861533,713.030067 325.60526400000003,717.285508 323.32,721 C320.32,725.72 315.77000000000004,728.69 310.76000000000005,728.5300000000001 L309.76000000000005,728.45 C306.914779,728.078041 304.268036,726.7897720000001 302.22,724.7800000000001 C300.82897,723.461088 299.657546,721.928447 298.75,720.24 C294.67170100000004,712.370454 294.96695800000003,702.948745 299.53000000000003,695.35 C302.53000000000003,690.61 307.08000000000004,687.6500000000001 312.09000000000003,687.8100000000001 C317.1,687.97 321.45000000000005,691.21 324.14000000000004,696.11 C326.182728,699.970465 327.156335,704.306815 326.96000000000004,708.6700000000001 z" fill="rgb(63,61,86)" stroke="none" stroke-width="1"/><ellipse id="ejgg26skrzf10" rx="20.3700008392334" ry="15.5600004196167" transform="matrix(0.031585,-0.999501,0.999501,0.031585,312.21551008000085,683.3343564000018) " fill="rgb(63,61,86)" stroke="none" stroke-width="1"/><ellipse id="ejgg26skrzf11" rx="20.3700008392334" ry="15.5600004196167" transform="matrix(0.031585,-0.999501,0.999501,0.031585,312.9925664900009,658.4485949700017) " fill="rgb(63,61,86)" stroke="none" stroke-width="1"/><ellipse id="ejgg26skrzf12" rx="20.3700008392334" ry="15.5600004196167" transform="matrix(0.031585,-0.999501,0.999501,0.031585,313.7799387500008,633.5528385300015) " fill="rgb(63,61,86)" stroke="none" stroke-width="1"/><path id="ejgg26skrzf13" d="M392.51000000000005,511.63999999999993 C392.00872400000003,528.354555 385.88147200000003,544.410846 375.12,557.21 C398.17787300000003,588.512019 393.305533,632.2789760000001 363.928128,657.743657 C334.550724,683.208339 290.53535500000004,681.8178260000001 262.823864,654.549619 C235.11237199999997,627.281412 233.01232100000001,583.2941860000001 258,553.51 C248.41,540.51 392.79,503.2699999999999 392.51000000000005,511.63999999999993 z" opacity="0.1" fill="rgb(0,0,0)" stroke="none" stroke-width="1"/></g><g id="ejgg26skrzf14" opacity="0.1"><path id="ejgg26skrzf15" d="M846.9499999999999,603.51 C846.9499999999999,604.1800000000001 846.88,604.83 846.81,605.51 Q838.5,602.21 830.5,598.44 C827.65229,598.0666060000001 825.002796,596.778707 822.9499999999999,594.77 C821.4,593.98 819.8399999999999,593.1700000000001 818.3,592.35 C818.651402,591.620796 819.0454159999999,590.912905 819.48,590.23 C822.48,585.49 827.02,582.5300000000001 832.04,582.69 C837.06,582.85 841.4,586.09 844.04,590.99 C846.1069769999999,594.829971 847.111551,599.152056 846.9499999999999,603.51 z" fill="rgb(63,61,86)" stroke="none" stroke-width="1"/><path id="ejgg26skrzf16" d="M847.79,578.62 C847.6885189999999,582.980995 846.428778,587.2365020000001 844.14,590.95 C841.14,595.6700000000001 836.5999999999999,598.64 831.5799999999999,598.48 L830.5799999999999,598.4000000000001 C827.7322899999999,598.026606 825.0827959999999,596.7387070000001 823.03,594.73 C821.642987,593.4074820000001 820.47208,591.875518 819.56,590.19 C815.4817009999999,582.320454 815.7769579999999,572.8987450000001 820.3399999999999,565.3000000000001 C823.3399999999999,560.57 827.89,557.6 832.9,557.76 C837.91,557.9200000000001 842.27,561.1600000000001 844.9499999999999,566.0600000000001 C846.99966,569.91854 847.980196,574.254996 847.79,578.62 z" fill="rgb(63,61,86)" stroke="none" stroke-width="1"/><ellipse id="ejgg26skrzf17" rx="20.3700008392334" ry="15.5600004196167" transform="matrix(0.031585,-0.999501,0.999501,0.031585,833.0189254800019,553.2765913800015) " fill="rgb(63,61,86)" stroke="none" stroke-width="1"/><ellipse id="ejgg26skrzf18" rx="20.3700008392334" ry="15.5600004196167" transform="matrix(0.031585,-0.999501,0.999501,0.031585,833.8062977400019,528.3908349400014) " fill="rgb(63,61,86)" stroke="none" stroke-width="1"/><ellipse id="ejgg26skrzf19" rx="20.3700008392334" ry="15.5600004196167" transform="matrix(0.031585,-0.999501,0.999501,0.031585,834.5933491600019,503.50538936000123) " fill="rgb(63,61,86)" stroke="none" stroke-width="1"/><path id="ejgg26skrzf20" d="M913.29,381.59 C912.789128,398.30339699999996 906.657775,414.35767699999997 895.89,427.15 C918.9465849999999,458.44758799999994 914.075881,502.209996 884.702006,527.672136 C855.32813,553.134276 811.317468,551.743674 783.6096319999999,524.477928 C755.901795,497.21218099999993 753.8035639999999,453.22957599999995 778.79,423.45 C769.1899999999999,410.46 913.55,373.21 913.29,381.59 z" opacity="0.1" fill="rgb(0,0,0)" stroke="none" stroke-width="1"/></g><ellipse id="ejgg26skrzf21" rx="57.0099983215332" ry="10.960000038146973" transform="matrix(1,0,0,1,193.5,750.89) " fill="#b6b6b6" stroke="none" stroke-width="1" class="" fill-opacity="1"/><ellipse id="ejgg26skrzf22" rx="6.639999866485596" ry="8.6899995803833" transform="matrix(1,0,0,1,192.55,746.23) " fill="#484848" stroke="none" stroke-width="1" class="" fill-opacity="1"/><ellipse id="ejgg26skrzf23" rx="6.639999866485596" ry="8.6899995803833" transform="matrix(1,0,0,1,192.55,735.61) " fill="#484848" stroke="none" stroke-width="1" class="" fill-opacity="1"/><ellipse id="ejgg26skrzf24" rx="6.639999866485596" ry="8.6899995803833" transform="matrix(1,0,0,1,192.55,724.99) " fill="#484848" stroke="none" stroke-width="1" class="" fill-opacity="1" cy="-0.6849315166473389" cx="0"/><ellipse id="ejgg26skrzf25" rx="6.639999866485596" ry="8.6899995803833" transform="matrix(1,0,0,1,192.55,714.37) " fill="rgb(63,61,86)" stroke="none" stroke-width="1" class=""/><ellipse rx="6.639999866485596" ry="8.6899995803833" transform="matrix(1,0,0,1,192.55,714.37) " fill="#484848" stroke="none" stroke-width="1" class="" id="svg_3" cy="0" cx="0" fill-opacity="1"/><ellipse id="ejgg26skrzf26" rx="6.639999866485596" ry="8.6899995803833" transform="matrix(1,0,0,1,192.55,703.75) " fill="#ffffff" stroke="none" stroke-width="1" class="" fill-opacity="1"/><ellipse rx="6.639999866485596" ry="8.6899995803833" transform="matrix(1,0,0,1,192.55,703.75) " fill="#484848" stroke="none" stroke-width="1" class="" id="svg_2" cy="0.6849315166473389" cx="0" fill-opacity="1"/><ellipse id="ejgg26skrzf27" rx="6.639999866485596" ry="8.6899995803833" transform="matrix(1,0,0,1,192.55,693.13) " fill="rgb(63,61,86)" stroke="none" stroke-width="1"/><ellipse id="ejgg26skrzf28" rx="6.639999866485596" ry="8.6899995803833" transform="matrix(1,0,0,1,192.55,682.51) " fill="rgb(63,61,86)" stroke="none" stroke-width="1"/><path id="ejgg26skrzf29" d="M218.08493151664734,609.83 C218.98997551664732,608.67417 219.81521951664732,607.45802 220.55493151664731,606.19 L203.11493151664732,603.32 L221.97493151664733,603.47 C225.63039651664732,595.510227 225.85098651664734,586.397318 222.58493151664734,578.27 L197.27493151664734,591.4000000000001 L220.61493151664732,574.21 C214.65021151664732,563.918296 203.44031651664733,557.8160720000001 191.55906851664733,558.393137 C179.67782051664733,558.9702020000001 169.11205551664733,566.1300570000001 164.17278251664735,576.951361 C159.23350851664733,587.7726650000001 160.74669351664733,600.445833 168.09493151664734,609.8000000000001 C166.68460051664732,611.59851 165.47100951664734,613.542939 164.47493151664733,615.6 L187.11493151664732,627.36 L162.97493151664733,619.26 C159.52982051664733,629.4393220000001 161.45548351664732,640.669845 168.09493151664734,649.12 C157.84578151664732,662.157648 159.33666651664734,680.882693 171.51972351664733,692.1342910000001 C183.70277951664733,703.385889 202.48708351664732,703.385889 214.6701395166473,692.1342910000001 C226.85319651664733,680.882693 228.34408151664732,662.157648 218.09493151664734,649.12 C227.16169451664732,637.581356 227.16169451664732,621.338644 218.09493151664734,609.8000000000001 z" fill="#67e767" stroke="none" stroke-width="1" class="" fill-opacity="1"/><path id="ejgg26skrzf30" d="M160.60999999999999,629.49 C160.598292,636.622064 162.994282,643.549293 167.41,649.1500000000001 C157.16084999999998,662.1876480000001 158.651735,680.912693 170.834792,692.164291 C183.017848,703.415889 201.80215199999998,703.415889 213.98520799999997,692.164291 C226.168265,680.912693 227.65914999999998,662.1876480000001 217.41,649.1500000000001 C221.66,643.74 160.60999999999999,625.9200000000001 160.60999999999999,629.49 z" opacity="0.1" fill="#919191" stroke="none" stroke-width="1" class="" fill-opacity="1"/><path id="ejgg26skrzf31" d="M346.5,517.21 L346.5,743.21 Q321.74,742 297.01000000000005,740.3000000000001 L289.5,739.77 L289.5,517.21 C289.5,514.870791 290.42924700000003,512.627389 292.083318,510.973318 C293.737389,509.31924699999996 295.980791,508.38999999999993 298.32,508.38999999999993 L337.68,508.38999999999993 C340.01920900000005,508.38999999999993 342.262611,509.31924699999996 343.91668200000004,510.973318 C345.570753,512.627389 346.5,514.870791 346.5,517.21 z" fill="#b6b6b6" stroke="none" stroke-width="1" class="" fill-opacity="1"/><path id="ejgg26skrzf32" d="M420.18493151664734,746.02 L420.18493151664734,366.21 C420.18493151664734,361.338849 424.13378051664733,357.39 429.00493151664733,357.39 L468.36493151664735,357.39 C470.7041405166473,357.39 472.9475425166474,358.31924699999996 474.6016135166473,359.973318 C476.25568451664736,361.627389 477.1849315166474,363.870791 477.1849315166474,366.21 L477.1849315166474,747.01 z" fill="#b6b6b6" stroke="none" stroke-width="1" class="" fill-opacity="1"/><path id="ejgg26skrzf33" d="M549.5,747.21 L549.5,445.21 C549.5,442.870791 550.4292469999999,440.627389 552.083318,438.973318 C553.737389,437.31924699999996 555.980791,436.39 558.3199999999999,436.39 L597.68,436.39 C600.0192089999999,436.39 602.262611,437.31924699999996 603.9166819999999,438.973318 C605.570753,440.627389 606.5,442.870791 606.5,445.21 L606.5,746.5600000000001 z" fill="#b6b6b6" stroke="none" stroke-width="1" class="" fill-opacity="1"/><path id="ejgg26skrzf34" d="M736.5,221.21 L736.5,743.5600000000001 Q708,744.37 679.5,745.08 L679.5,221.21 C679.5,218.87079100000003 680.4292469999999,216.62738900000002 682.083318,214.97331800000003 C683.737389,213.319247 685.980791,212.39000000000001 688.3199999999999,212.39000000000001 L727.68,212.39000000000001 C732.551151,212.39000000000001 736.5,216.338849 736.5,221.21 z" fill="#b6b6b6" stroke="none" stroke-width="1" class="" fill-opacity="1"/><path id="ejgg26skrzf35" d="M866.5,326.21 L866.5,739.21 C847.5,740.13 828.5,740.7800000000001 809.5,741.36 L809.5,326.21 C809.5,323.870791 810.4292469999999,321.627389 812.083318,319.973318 C813.737389,318.31924699999996 815.980791,317.39 818.3199999999999,317.39 L857.68,317.39 C862.551151,317.39 866.5,321.338849 866.5,326.21 z" fill="#b6b6b6" stroke="none" stroke-width="1" class="selected" fill-opacity="1"/><polyline id="ejgg26skrzf36" points="318.500000,385.410000 448.500000,240.410000 578.500000,313.410000 708.500000,89.410000 838.500000,196.410000" fill="none" stroke="#ffffff" stroke-width="7" stroke-linecap="round" stroke-miterlimit="10" class="" stroke-opacity="1"/><circle id="ejgg26skrzf37" r="28" transform="matrix(1,0,0,1,318,385.41) " fill="#1aebeb" stroke="none" stroke-width="1" class="" fill-opacity="1" cy="0" cx="-0.6849315166473389"/><circle id="ejgg26skrzf38" r="28" transform="matrix(1,0,0,1,448,240.41) " fill="#1aebeb" stroke="none" stroke-width="1" class="" fill-opacity="1"/><circle id="ejgg26skrzf39" r="28" transform="matrix(1,0,0,1,578,313.41) " fill="rgb(108,99,255)" stroke="none" stroke-width="1" class=""/><circle r="28" transform="matrix(1,0,0,1,578,313.41) " fill="#1aebeb" stroke="none" stroke-width="1" class="" id="svg_1" cy="0" cx="0" fill-opacity="1"/><circle id="ejgg26skrzf40" r="28" transform="matrix(1,0,0,1,708,89.41) " fill="#1aebeb" stroke="none" stroke-width="1" class="" fill-opacity="1"/><circle id="ejgg26skrzf41" r="28" transform="matrix(1,0,0,1,958,327.41) " fill="#1aebeb" stroke="none" stroke-width="1" class="" fill-opacity="1"/><path id="ejgg26skrzf42" d="M849.5999999999999,344.58 C849.785575,346.331443 850.480964,347.989945 851.5999999999999,349.34999999999997 C853.05,350.98999999999995 855.2199999999999,351.73999999999995 857.17,352.71999999999997 C862.216492,355.30296599999997 866.071093,359.73432399999996 867.93,365.09 C871.26,374.81 871.6899999999999,385.09 875.93,394.46999999999997 C880.17,403.84999999999997 885.15,412.85999999999996 888.81,422.46999999999997 C890.89,427.91999999999996 892.55,433.59 895.5999999999999,438.54999999999995 C897.0765779999999,440.989373 898.960549,443.15746099999996 901.17,444.96 C900.9399999999999,448.47999999999996 900.8499999999999,451.96 900.87,455.47999999999996 C902.2434559999999,455.452927 903.534719,456.13254 904.29,457.28000000000003 C905.0300179999999,458.420088 905.5396079999999,459.694062 905.79,461.03000000000003 C907.16,466.7 905.4699999999999,472.73999999999995 906.6999999999999,478.44 C910.079224,494.2952619999999 909.041526,510.77390399999996 903.6999999999999,526.08 C902.3299999999999,529.96 900.61,542.8000000000001 902.0699999999999,546.6500000000001 C907.51,546.1 912.3299999999999,549.44 917.42,551.6500000000001 C917.831549,554.666827 917.5859379999999,557.736972 916.6999999999999,560.6500000000001 C914.87,565.9200000000001 914.88,571.6500000000001 914.91,577.22 L915.16,618.48 C915.16,623.71 915.23,629.01 916.54,634.08 C918.03,639.7900000000001 921.16,645.61 921.06,651.51 C920.79,664.21 926.79,676.3100000000001 926.31,688.9100000000001 C926.2199999999999,691.33 925.89,693.73 925.66,696.13 C925.069435,702.523442 925.2305349999999,708.9640780000001 926.14,715.32 C927.9599999999999,727.98 932.77,740.4300000000001 931.5699999999999,753.1600000000001 C931.49,754.02 931.1999999999999,755.1600000000001 930.39,755.49 C931.39,756.62 932.4499999999999,757.74 933.53,758.8100000000001 C933.311461,759.174394 933.0142099999999,759.485313 932.66,759.72 C931.478355,760.3370990000001 930.1724459999999,760.6789600000001 928.8399999999999,760.72 C927.276704,760.761014 925.758803,761.2542450000001 924.4699999999999,762.14 C923.5331779999999,763.0388260000001 922.897435,764.205519 922.65,765.48 C921.930047,768.028452 922.369008,770.764641 923.8499999999999,772.96 C924.742885,774.083984 925.910456,774.958801 927.24,775.5 C931.86,777.5 937.16,776.0500000000001 941.98,774.59 L960.86,768.87 C962.011593,768.630799 963.0743,768.076945 963.93,767.27 C964.321503,766.807507 964.580651,766.247749 964.68,765.6500000000001 C968.8499999999999,766.6500000000001 973.43,765.4200000000001 977.68,764.1500000000001 L996.56,758.4200000000001 C997.7132099999999,758.185346 998.7771009999999,757.6308750000001 999.6299999999999,756.82 C1000.3179889999999,755.98323 1000.599952,754.884675 1000.3999999999999,753.82 C1000.54,753.76 1000.6800000000001,753.72 1000.8199999999999,753.6500000000001 C1002.26,753 1003.8199999999999,751.73 1003.47,750.2 C1003.22,749.2 1002.22,748.62 1001.79,747.7 C1001.3783980000001,746.482614 1001.6449949999999,745.1382 1002.49,744.1700000000001 C1003.23,743.1700000000001 1004.23,742.34 1004.9099999999999,741.2900000000001 C1007.0899999999999,737.95 1005.6099999999999,733.5600000000001 1004.79,729.6500000000001 C1003.02,721.3000000000001 1004.6599999999999,712.58 1003.54,704.12 C1003.1599999999999,701.27 1002.47,698.47 1001.9200000000001,695.64 C1000.7545439999999,688.9510740000001 999.9832139999999,682.199434 999.6099999999999,675.4200000000001 C998.8899999999999,665.74 996.2,656.2 997.74,646.6 C998.487832,640.965673 998.8054179999999,635.2825680000001 998.69,629.6 C998.798802,625.980034 998.641713,622.3569640000001 998.22,618.76 C997.8299999999999,616.08 997.1399999999999,613.45 996.8399999999999,610.76 C996.5966060000001,607.7363280000001 996.543167,604.700364 996.6800000000001,601.6700000000001 C996.8178849999999,594.914752 996.193947,588.165486 994.8199999999999,581.5500000000001 C992.8199999999999,572.46 989.06,563.76 987.46,554.6500000000001 C988,554.77 988.54,554.89 989.06,555.0300000000001 C989.1199999999999,548.0300000000001 982.99,532.8100000000001 980.7199999999999,526.1700000000001 C980.387716,525.356659 980.185249,524.496173 980.12,523.62 C980.257247,522.4644930000001 980.46767,521.3188590000001 980.75,520.19 C981.04,517.77 979.75,515.47 979.4,513.0500000000001 C979.263647,511.34770599999996 979.388422,509.634571 979.77,507.96999999999997 C981.3799999999999,499.0199999999999 983.3799999999999,490.13999999999993 985.3799999999999,481.2699999999999 C986.252005,478.057439 986.553244,474.71673200000004 986.27,471.40000000000003 C985.7997479999999,467.843538 986.894061,464.25783799999994 989.27,461.57 C990.148655,460.759309 990.8974069999999,459.81830999999994 991.49,458.78000000000003 C991.8225669999999,457.888992 991.972211,456.94011299999994 991.9300000000001,455.98999999999995 C991.890283,451.876598 991.2845990000001,447.788235 990.1299999999999,443.84 C991.8899999999999,440.65 992.54,436.72999999999996 993.05,433.03 C994.1700000000001,424.85999999999996 995.29,416.65 995.25,408.4 C995.3390979999999,403.99887099999995 994.7315939999999,399.611341 993.45,395.4 C992.5138420000001,392.799102 991.3701599999999,390.277651 990.03,387.85999999999996 C984.77,377.72999999999996 979.74,367.07 973.0999999999999,357.78999999999996 C971.0999999999999,354.96999999999997 972.36,351.08 972.5,347.59999999999997 C972.65,343.4 970.99,339.37 969.36,335.51 C968.528419,333.134353 967.252393,330.93863699999997 965.5999999999999,329.03999999999996 C964.470557,327.796921 962.8792129999999,327.073583 961.1999999999999,327.03999999999996 C959.29496,327.27276 957.584252,328.31961099999995 956.51,329.90999999999997 C954.067286,333.23733899999996 953.0555989999999,337.402895 953.6999999999999,341.47999999999996 C954.364335,345.52052199999997 956.124957,349.30118999999996 958.79,352.40999999999997 C960.0773009999999,353.974293 961.551646,355.374753 963.18,356.58 Q965.66,364.46 968.18,372.33 C970.8199999999999,380.68 973.4599999999999,389.07 977.18,396.96999999999997 C978.27,399.26 979.4699999999999,401.59 979.5999999999999,404.12 C979.74,406.84999999999997 978.5999999999999,409.45 977.6899999999999,412.02 C975.772885,417.37650299999996 974.686976,422.994898 974.4699999999999,428.68 C974.177654,428.809624 973.896673,428.96349499999997 973.63,429.14 C970.48,431.2 969.49,435.69 966.2099999999999,437.53 C964.3,438.59999999999997 961.98,438.53 959.8399999999999,439.02 C959.65,439.02 959.4599999999999,439.12 959.26,439.18 C959.18,438.78 959.0999999999999,438.39 959.05,437.97999999999996 C959.0192969999999,437.724252 959.0192969999999,437.46574799999996 959.05,437.21 C964.148913,434.406572 968.4321229999999,430.326668 971.48,425.37 C972.122217,424.452051 972.618116,423.44001199999997 972.9499999999999,422.37 C973.2199069999999,421.08780199999995 973.270625,419.769142 973.0999999999999,418.46999999999997 C972.932966,414.13388799999996 972.312927,409.827132 971.25,405.62 C970.18313,401.39253199999996 967.8487,397.592542 964.56,394.72999999999996 C962.92,393.40999999999997 961.03,392.41999999999996 959.4,391.09 C956.2199999999999,388.52 954.04,384.71999999999997 950.4,382.81 C945.614732,380.47947 939.845297,381.971638 936.79,386.33 C936.305798,387.305637 935.624839,388.170455 934.79,388.87 C934.153271,389.17123599999996 933.5324519999999,389.505009 932.93,389.87 C931.8299999999999,390.75 931.77,392.44 932.13,393.81 C932.812364,396.625026 933.194498,399.504436 933.27,402.4 C926.604655,410.221989 926.579267,421.71864899999997 933.2099999999999,429.57 C933.2099999999999,431.43 933.2099999999999,433.28999999999996 933.14,435.15 C933.14,435.5 933.14,435.85999999999996 933.0699999999999,436.21 C931.916756,435.80816599999997 930.8844789999999,435.119981 930.0699999999999,434.21 C928.9499999999999,432.81 928.75,430.75 927.38,429.59999999999997 C926.394816,428.95046399999995 925.271751,428.539586 924.0999999999999,428.4 C921.1877479999999,427.738384 918.456597,426.444502 916.0999999999999,424.60999999999996 C914.25,423.18 912.3299999999999,421.34999999999997 910.17,420.93 C906.442854,413.938747 902.0918439999999,407.298436 897.17,401.09 C895.921762,399.620325 894.785255,398.05929899999995 893.77,396.41999999999996 C891.62,392.66999999999996 890.98,388.26 889.62,384.15 C885.8199999999999,372.63 876.3399999999999,363.39 874.03,351.46999999999997 C873.1899999999999,347.15 870.4499999999999,343.39 868.5699999999999,339.40999999999997 C867.3,336.71999999999997 865.9,333.88 863.36,332.34 C860.0899999999999,330.34 855.5699999999999,331.26 852.8499999999999,333.95 C850.18183,336.800506 848.9820249999999,340.724793 849.5999999999999,344.58 zM968.3299999999999,749.27 C967.1483549999999,749.887099 965.842446,750.22896 964.51,750.27 C963.8379719999999,750.339925 963.170297,750.4467530000001 962.51,750.59 C962.26,748.49 962.12,746.36 961.9599999999999,744.2900000000001 C961.43,737.5 960.37,730.76 959.3199999999999,724.0300000000001 C958.2199999999999,717.0300000000001 957.6999999999999,709.37 955.3199999999999,702.6500000000001 C951.49,691.71 947.61,680.44 948.0999999999999,668.85 C948.2099999999999,666.22 948.54,663.61 948.68,660.99 C949,654.5 948.0899999999999,647.87 949.68,641.5600000000001 C950.39,638.69 951.5999999999999,635.95 952.06,633.0300000000001 C952.353403,630.393003 952.386897,627.73355 952.16,625.09 C951.722951,615.91339 952.4860689999999,606.7189930000001 954.43,597.74 C956.29,600.1700000000001 956.9,603.3100000000001 957.43,606.32 L961.18,626.6600000000001 C963.41,638.73 965.38,651.5300000000001 971.29,662.27 C970.4599999999999,666.14 969.64,670.27 971.01,673.97 C971.5999999999999,675.57 972.5699999999999,676.97 973.17,678.59 C974.17,681.2800000000001 974.03,684.24 974.3299999999999,687.09 C974.98,693.09 977.4599999999999,698.99 975.64,704.7800000000001 C973.767933,710.750294 972.5507759999999,716.9064930000001 972.01,723.14 C971.9105619999999,724.873522 971.7102219999999,726.59978 971.41,728.3100000000001 C971.0899999999999,729.85 970.5699999999999,731.3100000000001 970.28,732.89 C969.880154,735.107282 969.979219,737.385789 970.5699999999999,739.5600000000001 C971.0189939999999,740.765021 971.295068,742.027557 971.39,743.3100000000001 C971.39,744.59 969.8199999999999,745.51 968.56,745.71 C968.93,746.19 969.3299999999999,746.6500000000001 969.74,747.1 C969.499291,747.948838 969.007835,748.705192 968.3299999999999,749.27 z" fill="url(#ejgg26skrzf42-fill)" stroke="none" stroke-width="1"/><path id="ejgg26skrzf43" d="M928.8399999999999,760.8100000000001 C927.276704,760.8510140000001 925.758803,761.344245 924.4699999999999,762.23 C923.529847,763.1181640000001 922.893094,764.279713 922.65,765.5500000000001 C921.9319019999999,768.079025 922.371345,770.796245 923.8499999999999,772.97 C924.743485,774.0909740000001 925.911132,774.962404 927.24,775.5 C931.86,777.5 937.16,776.0400000000001 941.98,774.59 L960.86,768.9100000000001 C962.010872,768.6746430000001 963.073727,768.124174 963.93,767.32 C964.995677,765.88463 965.0278569999999,763.929667 964.01,762.46 C962.995732,761.0487330000001 961.611557,759.9448540000001 960.01,759.27 C954.14,756.4100000000001 947.52,755.76 941.0699999999999,755.64 C938.67,755.64 936.3,755.0600000000001 934.67,756.9100000000001 C933.81,757.9100000000001 933.9699999999999,758.98 932.67,759.83 C931.4817459999999,760.436493 930.1735209999999,760.771234 928.8399999999999,760.8100000000001 z" fill="rgb(63,61,86)" stroke="none" stroke-width="1"/><path id="ejgg26skrzf44" d="M964.51,750.4300000000001 C962.9474829999999,750.475527 961.4308259999999,750.9683540000001 960.14,751.85 C959.202006,752.73983 958.565659,753.9006370000001 958.3199999999999,755.1700000000001 C957.6030089999999,757.702344 958.0422729999999,760.4221190000001 959.52,762.6 C960.4169039999999,763.715042 961.583797,764.5824680000001 962.91,765.12 C967.54,767.12 972.8299999999999,765.6700000000001 977.65,764.22 L996.53,758.5300000000001 C997.6808719999999,758.2946430000001 998.743727,757.744174 999.5999999999999,756.94 C1000.6639680000001,755.5077660000001 1000.6961529999999,753.556545 999.6800000000001,752.09 C998.6645980000001,750.6798120000001 997.2807579999999,749.5761990000001 995.6800000000001,748.9000000000001 C989.8,746.0400000000001 983.1800000000001,745.38 976.73,745.26 C974.3299999999999,745.26 971.9699999999999,744.69 970.3299999999999,746.5400000000001 C969.4699999999999,747.5400000000001 969.63,748.6 968.3299999999999,749.45 C967.148468,750.0647650000001 965.841561,750.4000450000001 964.51,750.4300000000001 z" fill="rgb(63,61,86)" stroke="none" stroke-width="1"/><path id="ejgg26skrzf45" d="M948.0999999999999,545.5300000000001 C959.226223,544.4120230000001 970.418585,544.097875 981.5899999999999,544.59 C982.327166,544.582452 983.060469,544.697348 983.76,544.9300000000001 C986.22,545.9300000000001 986.5999999999999,549.1500000000001 986.8299999999999,551.7800000000001 C987.8299999999999,562.46 992.49,572.4100000000001 994.8299999999999,582.87 C996.204166,589.4449020000001 996.828154,596.154452 996.69,602.87 C996.5548329999999,605.870391 996.6082719999999,608.87631 996.8499999999999,611.87 C997.1499999999999,614.5400000000001 997.8499999999999,617.1600000000001 998.23,619.82 C998.651891,623.39351 998.808986,626.993323 998.7,630.59 C998.8144029999999,636.229339 998.4968079999999,641.8691590000001 997.75,647.46 C996.21,656.99 998.8999999999999,666.46 999.6199999999999,676.1 C999.9788249999999,682.8422830000001 1000.7368199999999,689.5573830000001 1001.8899999999999,696.21 C1002.44,699.02 1003.1299999999999,701.8000000000001 1003.51,704.63 C1004.6299999999999,713.0400000000001 1002.99,721.7 1004.76,730 C1005.5799999999999,733.88 1007.06,738.24 1004.8799999999999,741.5600000000001 C1004.2,742.5600000000001 1003.2,743.4100000000001 1002.46,744.4200000000001 C1001.6146659999999,745.380089 1001.34763,746.7190870000001 1001.76,747.9300000000001 C1002.19,748.84 1003.19,749.44 1003.44,750.4100000000001 C1003.8299999999999,751.94 1002.23,753.19 1000.79,753.84 C989.94,758.74 975.9499999999999,755.2900000000001 968.63,745.9000000000001 C969.89,745.7 971.43,744.7900000000001 971.4599999999999,743.51 C971.3638659999999,742.237476 971.0877849999999,740.98501 970.64,739.7900000000001 C970.0510429999999,737.632543 969.951959,735.3706940000001 970.3499999999999,733.1700000000001 C970.64,731.63 971.16,730.1700000000001 971.48,728.62 C971.780212,726.919855 971.980556,725.203581 972.0799999999999,723.48 C972.6208869999999,717.2857690000001 973.838135,711.169348 975.7099999999999,705.24 C977.53,699.49 975.05,693.6700000000001 974.4,687.6700000000001 C974.0999999999999,684.83 974.23,681.9000000000001 973.24,679.22 C972.64,677.64 971.67,676.22 971.0799999999999,674.64 C969.7099999999999,670.95 970.53,666.85 971.36,663.01 C965.4499999999999,652.34 963.48,639.62 961.25,627.63 L957.5,607.4300000000001 C956.9399999999999,604.4300000000001 956.3299999999999,601.32 954.5,598.9000000000001 C952.556157,607.818088 951.792953,616.952993 952.23,626.07 C952.456787,628.696868 952.42329,631.339724 952.13,633.96 C951.67,636.86 950.4599999999999,639.59 949.75,642.4300000000001 C948.1999999999999,648.7 949.11,655.2800000000001 948.75,661.73 C948.61,664.34 948.28,666.9300000000001 948.17,669.5400000000001 C947.68,681.0600000000001 951.56,692.26 955.39,703.13 C957.74,709.8000000000001 958.26,717.38 959.39,724.36 C960.39,731.0500000000001 961.5,737.74 962.03,744.49 C962.52,750.69 962.74,757.4000000000001 966.5999999999999,762.27 C963.0699999999999,764.5600000000001 959.43,766.89 955.3,767.6800000000001 C950.487074,768.432991 945.5623899999999,767.4777720000001 941.38,764.98 C937.221291,762.493381 933.504119,759.333785 930.38,755.63 C931.1899999999999,755.35 931.48,754.1700000000001 931.56,753.32 C932.76,740.6600000000001 927.9499999999999,728.32 926.13,715.72 C925.2202159999999,709.407717 925.0591009999999,703.010075 925.65,696.6600000000001 C925.88,694.27 926.2099999999999,691.88 926.3,689.48 C926.78,676.97 920.75,664.9200000000001 920.9699999999999,652.4000000000001 C921.0699999999999,646.5300000000001 917.9699999999999,640.75 916.4499999999999,635.08 C915.14,630.08 915.0999999999999,624.7800000000001 915.0699999999999,619.58 L914.8199999999999,578.58 C914.8199999999999,573.0400000000001 914.8199999999999,567.36 916.61,562.13 C918.81,555.83 916.29,548.6 915.91,541.94 C926.3013219999999,545.2333500000001 937.238435,546.453115 948.0999999999999,545.5300000000001 z" fill="rgb(105,103,145)" stroke="none" stroke-width="1"/><path id="ejgg26skrzf46" d="M912.4499999999999,427.72999999999996 C908.246806,419.13719399999997 903.1127,411.031948 897.14,403.56 C895.8920449999999,402.10067899999996 894.755512,400.549646 893.74,398.91999999999996 C891.5899999999999,395.19 890.9499999999999,390.81 889.5899999999999,386.72999999999996 C885.79,375.28999999999996 876.31,366.09999999999997 874,354.27 C873.16,349.96999999999997 870.42,346.27 868.54,342.27 C867.27,339.59999999999997 865.87,336.78 863.3299999999999,335.27 C860.06,333.27 855.54,334.19 852.8199999999999,336.87 C850.167831,339.696539 848.978212,343.594206 849.5999999999999,347.41999999999996 C849.78725,349.16198499999996 850.4827859999999,350.810405 851.5999999999999,352.15999999999997 C853.05,353.78999999999996 855.2199999999999,354.53 857.17,355.51 C862.208719,358.064034 866.064354,362.46791299999995 867.93,367.79999999999995 C871.26,377.45 871.6899999999999,387.66999999999996 875.93,396.98999999999995 C880.17,406.31 885.15,415.25 888.81,424.78 C890.89,430.19 892.55,435.78 895.5999999999999,440.78 C898.65,445.78 903.41,449.96999999999997 909.16,450.71999999999997 C909.121042,447.095195 909.671554,443.48816 910.79,440.03999999999996 C912.04,436.09999999999997 914.26,431.46 912.4499999999999,427.72999999999996 z" fill="rgb(160,97,106)" stroke="none" stroke-width="1"/><path id="ejgg26skrzf47" d="M974.36,435.21 C974.103001,428.139144 975.206315,421.084724 977.61,414.43 C978.53,411.88 979.61,409.28999999999996 979.52,406.58 C979.39,404.06 978.1899999999999,401.75 977.0999999999999,399.46999999999997 C973.3399999999999,391.62 970.6999999999999,383.29999999999995 968.0999999999999,375 L963.0999999999999,359.34999999999997 C961.4698099999999,358.15457499999997 959.995093,356.76048 958.7099999999999,355.2 C956.0447049999999,352.11839999999995 954.2831639999999,348.359984 953.62,344.34 C952.9754499999999,340.291185 953.9882759999999,336.153377 956.43,332.85999999999996 C957.5081349999999,331.27534499999996 959.2175659999999,330.23292 961.12,330 C962.798413,330.03709899999996 964.388435,330.759836 965.52,332 C967.169529,333.881899 968.4455919999999,336.060709 969.28,338.41999999999996 C970.91,342.26 972.5699999999999,346.26 972.42,350.41999999999996 C972.28,353.88 970.99,357.73999999999995 973.02,360.54999999999995 C979.66,369.77 984.69,380.35999999999996 989.95,390.43 C991.291737,392.82953399999997 992.4355289999999,395.334505 993.3699999999999,397.91999999999996 C994.6545839999999,402.11010699999997 995.262226,406.478374 995.1700000000001,410.85999999999996 C995.1700000000001,419.04999999999995 994.0899999999999,427.21 992.97,435.33 C992.26,440.41999999999996 991.3299999999999,445.96 987.48,449.33 C983.48,444.21 979.4599999999999,439.21 974.36,435.21 z" fill="rgb(160,97,106)" stroke="none" stroke-width="1"/><circle id="ejgg26skrzf48" r="20.75" transform="matrix(1,0,0,1,948.92,418.36) " fill="rgb(160,97,106)" stroke="none" stroke-width="1"/><path id="ejgg26skrzf49" d="M958.9699999999999,440.21 C959.4699999999999,443.96 961.48,447.32 963.4399999999999,450.56 C964.62,452.56 966.13,454.69 968.4399999999999,454.91 C962.428014,458.06512200000003 956.1126039999999,460.60468799999995 949.5899999999999,462.48999999999995 C947.373071,463.234849 945.048692,463.609858 942.7099999999999,463.59999999999997 C940.7281899999999,463.452148 938.788229,462.954461 936.98,462.12999999999994 C928.966965,458.64048399999996 922.9989469999999,451.666122 920.79,443.21 C923.3734469999999,443.278822 925.957106,443.08110999999997 928.5,442.62 C929.9521179999999,442.508474 931.3056409999999,441.842455 932.28,440.76 C932.8594559999999,439.74628099999995 933.130533,438.585513 933.06,437.41999999999996 C933.16,433.96 933.17,430.48999999999995 933.06,427.03 C938.158649,426.70502799999997 943.2731239999999,427.33585899999997 948.14,428.89 C950.14,429.53999999999996 952.14,430.32 954.14,430.83 C955.4,431.15 958.87,430.83 959.8,431.56 C961.3299999999999,432.59 958.62,437.65999999999997 958.9699999999999,440.21 z" fill="rgb(160,97,106)" stroke="none" stroke-width="1"/><path id="ejgg26skrzf50" d="M949.8499999999999,452.82 C950.316502,447.21286599999996 954.32168,442.534785 959.79,441.21 C961.93,440.72999999999996 964.25,440.78999999999996 966.16,439.72999999999996 C969.4399999999999,437.9 970.43,433.44 973.5799999999999,431.39 C976.73,429.34 981.2,430.47999999999996 983.94,433.07 C986.6800000000001,435.65999999999997 988.0699999999999,439.34999999999997 989.19,442.96 C990.862057,447.84119599999997 991.7694389999999,452.951549 991.8799999999999,458.10999999999996 C991.9217079999999,459.053562 991.772037,459.99580599999996 991.44,460.87999999999994 C990.847027,461.912123 990.0981999999999,462.84647 989.22,463.65000000000003 C986.8455449999999,466.31473 985.7501990000001,469.881906 986.22,473.42 C986.5041799999999,476.713592 986.202861,480.03148600000003 985.3299999999999,483.21999999999997 C983.3299999999999,492.04 981.3299999999999,500.84999999999997 979.7199999999999,509.74999999999994 C979.342226,511.38801799999993 979.217447,513.0742170000001 979.3499999999999,514.75 C979.66,517.1600000000001 980.99,519.44 980.6999999999999,521.85 C980.416796,522.9719160000001 980.2063579999999,524.110954 980.0699999999999,525.26 C980.1353429999999,526.1296950000001 980.337845,526.9835800000001 980.67,527.7900000000001 C982.94,534.38 989.0699999999999,549.48 989.01,556.46 C978.36,553.73 962.66,553.12 951.66,553.07 C948.634971,553.0383420000001 945.610469,553.171875 942.5999999999999,553.47 C935.37,554.25 927.9699999999999,556.36 920.9599999999999,554.4100000000001 C914.4499999999999,552.6 908.6899999999999,547.4100000000001 901.9599999999999,548.0600000000001 C900.5,544.24 902.2199999999999,531.49 903.5899999999999,527.63 C908.931008,512.4309410000001 909.969196,496.05178699999993 906.5899999999999,480.3 C905.36,474.63999999999993 907.05,468.62999999999994 905.68,463.00999999999993 C905.4296069999999,461.680283 904.9199189999999,460.412857 904.18,459.28000000000003 C903.422373,458.13634999999994 902.131524,457.46072999999996 900.76,457.48999999999995 C900.635368,448.45005299999997 901.4734229999999,439.42252299999996 903.26,430.56 C903.92,427.40999999999997 905.26,423.69 908.49,423.15 C911.3499999999999,422.65999999999997 913.75,425.08 916.05,426.84999999999997 C918.408272,428.675479 921.1396219999999,429.959214 924.05,430.60999999999996 C925.2217509999999,430.74958599999997 926.3448159999999,431.160464 927.3299999999999,431.81 C928.6999999999999,432.95 928.9,435 930.02,436.39 C932.02,438.88 936.49,438.66999999999996 937.91,441.53999999999996 C938.220455,442.394884 938.47106,443.270331 938.66,444.15999999999997 C939.3317099999999,445.86537799999996 940.476633,447.34337 941.9599999999999,448.41999999999996 C944.187466,450.514117 946.897749,452.025555 949.8499999999999,452.82 z" fill="rgb(248,109,112)" stroke="none" stroke-width="1"/><path id="ejgg26skrzf51" d="M932.06,396.29999999999995 C931.6999999999999,394.93 931.76,393.29999999999995 932.86,392.38 C933.41,391.95 934.13,391.78999999999996 934.7199999999999,391.38 C935.5515029999999,390.681181 936.231995,389.820359 936.7199999999999,388.84999999999997 C939.801338,384.538029 945.545028,383.07991799999996 950.31,385.4 C953.92,387.28999999999996 956.0999999999999,391.07 959.31,393.62 C960.9399999999999,394.94 962.8299999999999,395.91999999999996 964.4699999999999,397.23999999999995 C967.75454,400.07721399999997 970.0895939999999,403.85378799999995 971.16,408.06 C972.222848,412.236605 972.842933,416.51352099999997 973.01,420.82 C973.180672,422.112468 973.129947,423.42456599999997 972.86,424.7 C972.527665,425.769833 972.0318,426.78180399999997 971.39,427.7 C968.0899999999999,432.7 963.74,437.23999999999995 958.29,439.82 C952.8399999999999,442.4 946.2099999999999,442.82 940.8299999999999,440.12 C940.288741,439.901306 939.823047,439.52944499999995 939.49,439.04999999999995 C939.1841969999999,438.31989699999997 939.110868,437.51327899999995 939.28,436.73999999999995 C939.5716249999999,433.683628 938.9670179999999,430.60846999999995 937.54,427.89 C936.54,425.89 935.04,424.16999999999996 934.24,422.09999999999997 C933.496097,419.782969 933.177632,417.350442 933.3,414.91999999999996 C933.2099999999999,408.63 933.64,402.35999999999996 932.06,396.29999999999995 z" fill="rgb(45,41,61)" stroke="none" stroke-width="1"/></g></svg>