<svg id="ei9agu7b7e1j1" xmlns="http://www.w3.org/2000/svg" xmlns:xlink="http://www.w3.org/1999/xlink" viewBox="0 0 1113.580000 784.410000" shape-rendering="geometricPrecision" text-rendering="geometricPrecision" width="1113.580000" height="784.410000"><defs><linearGradient id="ei9agu7b7e1j7-fill" x1="1049.230000" y1="609.550000" x2="892.680000" y2="609.550000" spreadMethod="pad" gradientUnits="userSpaceOnUse"><stop id="ei9agu7b7e1j7-fill-0" offset="0%" stop-color="rgba(128,128,128,0.25)"/><stop id="ei9agu7b7e1j7-fill-1" offset="54%" stop-color="rgba(128,128,128,0.12)"/><stop id="ei9agu7b7e1j7-fill-2" offset="100%" stop-color="rgba(128,128,128,0.1)"/></linearGradient></defs><g id="ei9agu7b7e1j2"><g id="ei9agu7b7e1j3" transform="matrix(1 0 0 1 300 0)"><g id="ei9agu7b7e1j4" transform="matrix(1 0 0 1 0.83873550000010 1.99999634000028)"><ellipse id="ei9agu7b7e1j5" rx="64" ry="16.990000" transform="matrix(1 0 0 1 965 767.41999999999996)" opacity="0.1" fill="rgb(108,99,255)" stroke="none" stroke-width="1"/><circle id="ei9agu7b7e1j6" r="28" transform="matrix(1 0 0 1 958 327.41000000000003)" fill="rgb(108,99,255)" stroke="none" stroke-width="1"/><path id="ei9agu7b7e1j7" d="M892.810000,402.370000C892.995575,404.121443,893.690964,405.779945,894.810000,407.140000C896.260000,408.780000,898.430000,409.530000,900.380000,410.510000C905.426492,413.092966,909.281093,417.524324,911.140000,422.880000C914.470000,432.600000,914.900000,442.880000,919.140000,452.260000C923.380000,461.640000,928.360000,470.650000,932.020000,480.260000C934.100000,485.710000,935.760000,491.380000,938.810000,496.340000C940.286578,498.779373,942.170549,500.947461,944.380000,502.750000C944.150000,506.270000,944.060000,509.750000,944.080000,513.270000C945.453456,513.242927,946.744719,513.922540,947.500000,515.070000C948.240018,516.210088,948.749608,517.484062,949,518.820000C950.370000,524.490000,948.680000,530.530000,949.910000,536.230000C953.289224,552.085262,952.251526,568.563904,946.910000,583.870000C945.540000,587.750000,943.820000,600.590000,945.280000,604.440000C950.720000,603.890000,955.540000,607.230000,960.630000,609.440000C961.041549,612.456827,960.795938,615.526972,959.910000,618.440000C958.080000,623.710000,958.090000,629.440000,958.120000,635.010000L958.370000,676.270000C958.370000,681.500000,958.440000,686.800000,959.750000,691.870000C961.240000,697.580000,964.370000,703.400000,964.270000,709.300000C964,722,970,734.100000,969.520000,746.700000C969.430000,749.120000,969.100000,751.520000,968.870000,753.920000C968.279435,760.313442,968.440535,766.754078,969.350000,773.110000C971.170000,785.770000,975.980000,798.220000,974.780000,810.950000C974.700000,811.810000,974.410000,812.950000,973.600000,813.280000C974.600000,814.410000,975.660000,815.530000,976.740000,816.600000C976.521461,816.964394,976.224210,817.275313,975.870000,817.510000C974.688355,818.127099,973.382446,818.468960,972.050000,818.510000C970.486704,818.551014,968.968803,819.044245,967.680000,819.930000C966.743178,820.828826,966.107435,821.995519,965.860000,823.270000C965.140047,825.818452,965.579008,828.554641,967.060000,830.750000C967.952885,831.873984,969.120456,832.748801,970.450000,833.290000C975.070000,835.290000,980.370000,833.840000,985.190000,832.380000L1004.070000,826.660000C1005.221593,826.420799,1006.284300,825.866945,1007.140000,825.060000C1007.531503,824.597507,1007.790651,824.037749,1007.890000,823.440000C1012.060000,824.440000,1016.640000,823.210000,1020.890000,821.940000L1039.770000,816.210000C1040.923210,815.975346,1041.987101,815.420875,1042.840000,814.610000C1043.527989,813.773230,1043.809952,812.674675,1043.610000,811.610000C1043.750000,811.550000,1043.890000,811.510000,1044.030000,811.440000C1045.470000,810.790000,1047.030000,809.520000,1046.680000,807.990000C1046.430000,806.990000,1045.430000,806.410000,1045,805.490000C1044.588398,804.272614,1044.854995,802.928200,1045.700000,801.960000C1046.440000,800.960000,1047.440000,800.130000,1048.120000,799.080000C1050.300000,795.740000,1048.820000,791.350000,1048,787.440000C1046.230000,779.090000,1047.870000,770.370000,1046.750000,761.910000C1046.370000,759.060000,1045.680000,756.260000,1045.130000,753.430000C1043.964544,746.741074,1043.193214,739.989434,1042.820000,733.210000C1042.100000,723.530000,1039.410000,713.990000,1040.950000,704.390000C1041.697832,698.755673,1042.015418,693.072568,1041.900000,687.390000C1042.008802,683.770034,1041.851713,680.146964,1041.430000,676.550000C1041.040000,673.870000,1040.350000,671.240000,1040.050000,668.550000C1039.806606,665.526328,1039.753167,662.490364,1039.890000,659.460000C1040.027885,652.704752,1039.403947,645.955486,1038.030000,639.340000C1036.030000,630.250000,1032.270000,621.550000,1030.670000,612.440000C1031.210000,612.560000,1031.750000,612.680000,1032.270000,612.820000C1032.330000,605.820000,1026.200000,590.600000,1023.930000,583.960000C1023.597716,583.146659,1023.395249,582.286173,1023.330000,581.410000C1023.467247,580.254493,1023.677670,579.108859,1023.960000,577.980000C1024.250000,575.560000,1022.960000,573.260000,1022.610000,570.840000C1022.473647,569.137706,1022.598422,567.424571,1022.980000,565.760000C1024.590000,556.810000,1026.590000,547.930000,1028.590000,539.060000C1029.462005,535.847439,1029.763244,532.506732,1029.480000,529.190000C1029.009748,525.633538,1030.104061,522.047838,1032.480000,519.360000C1033.358655,518.549309,1034.107407,517.608310,1034.700000,516.570000C1035.032567,515.678992,1035.182211,514.730113,1035.140000,513.780000C1035.100283,509.666598,1034.494599,505.578235,1033.340000,501.630000C1035.100000,498.440000,1035.750000,494.520000,1036.260000,490.820000C1037.380000,482.650000,1038.500000,474.440000,1038.460000,466.190000C1038.549098,461.788871,1037.941594,457.401341,1036.660000,453.190000C1035.723842,450.589102,1034.580160,448.067651,1033.240000,445.650000C1027.980000,435.520000,1022.950000,424.860000,1016.310000,415.580000C1014.310000,412.760000,1015.570000,408.870000,1015.710000,405.390000C1015.860000,401.190000,1014.200000,397.160000,1012.570000,393.300000C1011.738419,390.924353,1010.462393,388.728637,1008.810000,386.830000C1007.680557,385.586921,1006.089213,384.863583,1004.410000,384.830000C1002.504960,385.062760,1000.794252,386.109611,999.720000,387.700000C997.277286,391.027339,996.265599,395.192895,996.910000,399.270000C997.574335,403.310522,999.334957,407.091190,1002,410.200000C1003.287301,411.764293,1004.761646,413.164753,1006.390000,414.370000Q1008.870000,422.250000,1011.390000,430.120000C1014.030000,438.470000,1016.670000,446.860000,1020.390000,454.760000C1021.480000,457.050000,1022.680000,459.380000,1022.810000,461.910000C1022.950000,464.640000,1021.810000,467.240000,1020.900000,469.810000C1018.982885,475.166503,1017.896976,480.784898,1017.680000,486.470000C1017.387654,486.599624,1017.106673,486.753495,1016.840000,486.930000C1013.690000,488.990000,1012.700000,493.480000,1009.420000,495.320000C1007.510000,496.390000,1005.190000,496.320000,1003.050000,496.810000C1002.860000,496.810000,1002.670000,496.910000,1002.470000,496.970000C1002.390000,496.570000,1002.310000,496.180000,1002.260000,495.770000C1002.229297,495.514252,1002.229297,495.255748,1002.260000,495C1007.358913,492.196572,1011.642123,488.116668,1014.690000,483.160000C1015.332217,482.242051,1015.828116,481.230012,1016.160000,480.160000C1016.429907,478.877802,1016.480625,477.559142,1016.310000,476.260000C1016.142966,471.923888,1015.522927,467.617132,1014.460000,463.410000C1013.393130,459.182532,1011.058700,455.382542,1007.770000,452.520000C1006.130000,451.200000,1004.240000,450.210000,1002.610000,448.880000C999.430000,446.310000,997.250000,442.510000,993.610000,440.600000C988.824732,438.269470,983.055297,439.761638,980,444.120000C979.515798,445.095637,978.834839,445.960455,978,446.660000C977.363271,446.961236,976.742452,447.295009,976.140000,447.660000C975.040000,448.540000,974.980000,450.230000,975.340000,451.600000C976.022364,454.415026,976.404498,457.294436,976.480000,460.190000C969.814655,468.011989,969.789267,479.508649,976.420000,487.360000C976.420000,489.220000,976.420000,491.080000,976.350000,492.940000C976.350000,493.290000,976.350000,493.650000,976.280000,494C975.126756,493.598166,974.094479,492.909981,973.280000,492C972.160000,490.600000,971.960000,488.540000,970.590000,487.390000C969.604816,486.740464,968.481751,486.329586,967.310000,486.190000C964.397748,485.528384,961.666597,484.234502,959.310000,482.400000C957.460000,480.970000,955.540000,479.140000,953.380000,478.720000C949.652854,471.728747,945.301844,465.088436,940.380000,458.880000C939.131762,457.410325,937.995255,455.849299,936.980000,454.210000C934.830000,450.460000,934.190000,446.050000,932.830000,441.940000C929.030000,430.420000,919.550000,421.180000,917.240000,409.260000C916.400000,404.940000,913.660000,401.180000,911.780000,397.200000C910.510000,394.510000,909.110000,391.670000,906.570000,390.130000C903.300000,388.130000,898.780000,389.050000,896.060000,391.740000C893.391830,394.590506,892.192025,398.514793,892.810000,402.370000ZM1011.540000,807.060000C1010.358355,807.677099,1009.052446,808.018960,1007.720000,808.060000C1007.047972,808.129925,1006.380297,808.236753,1005.720000,808.380000C1005.470000,806.280000,1005.330000,804.150000,1005.170000,802.080000C1004.640000,795.290000,1003.580000,788.550000,1002.530000,781.820000C1001.430000,774.820000,1000.910000,767.160000,998.530000,760.440000C994.700000,749.500000,990.820000,738.230000,991.310000,726.640000C991.420000,724.010000,991.750000,721.400000,991.890000,718.780000C992.210000,712.290000,991.300000,705.660000,992.890000,699.350000C993.600000,696.480000,994.810000,693.740000,995.270000,690.820000C995.563403,688.183003,995.596897,685.523550,995.370000,682.880000C994.932951,673.703390,995.696069,664.508993,997.640000,655.530000C999.500000,657.960000,1000.110000,661.100000,1000.640000,664.110000L1004.390000,684.450000C1006.620000,696.520000,1008.590000,709.320000,1014.500000,720.060000C1013.670000,723.930000,1012.850000,728.060000,1014.220000,731.760000C1014.810000,733.360000,1015.780000,734.760000,1016.380000,736.380000C1017.380000,739.070000,1017.240000,742.030000,1017.540000,744.880000C1018.190000,750.880000,1020.670000,756.780000,1018.850000,762.570000C1016.977933,768.540294,1015.760776,774.696493,1015.220000,780.930000C1015.120562,782.663522,1014.920222,784.389780,1014.620000,786.100000C1014.300000,787.640000,1013.780000,789.100000,1013.490000,790.680000C1013.090154,792.897282,1013.189219,795.175789,1013.780000,797.350000C1014.228994,798.555021,1014.505068,799.817557,1014.600000,801.100000C1014.600000,802.380000,1013.030000,803.300000,1011.770000,803.500000C1012.140000,803.980000,1012.540000,804.440000,1012.950000,804.890000C1012.709291,805.738838,1012.217835,806.495192,1011.540000,807.060000Z" transform="matrix(1 0 0 1 -43.21000000000000 -57.79000000000000)" fill="url(#ei9agu7b7e1j7-fill)" stroke="none" stroke-width="1"/><path id="ei9agu7b7e1j8" d="M972.050000,818.600000C970.486704,818.641014,968.968803,819.134245,967.680000,820.020000C966.739847,820.908164,966.103094,822.069713,965.860000,823.340000C965.141902,825.869025,965.581345,828.586245,967.060000,830.760000C967.953485,831.880974,969.121132,832.752404,970.450000,833.290000C975.070000,835.290000,980.370000,833.830000,985.190000,832.380000L1004.070000,826.700000C1005.220872,826.464643,1006.283727,825.914174,1007.140000,825.110000C1008.205677,823.674630,1008.237857,821.719667,1007.220000,820.250000C1006.205732,818.838733,1004.821557,817.734854,1003.220000,817.060000C997.350000,814.200000,990.730000,813.550000,984.280000,813.430000C981.880000,813.430000,979.510000,812.850000,977.880000,814.700000C977.020000,815.700000,977.180000,816.770000,975.880000,817.620000C974.691746,818.226493,973.383521,818.561234,972.050000,818.600000Z" transform="matrix(1 0 0 1 -43.21000000000000 -57.79000000000000)" fill="rgb(63,61,86)" stroke="none" stroke-width="1"/><path id="ei9agu7b7e1j9" d="M991.310000,603.320000C1002.436223,602.202023,1013.628585,601.887875,1024.800000,602.380000C1025.537166,602.372452,1026.270469,602.487348,1026.970000,602.720000C1029.430000,603.720000,1029.810000,606.940000,1030.040000,609.570000C1031.040000,620.250000,1035.700000,630.200000,1038.040000,640.660000C1039.414166,647.234902,1040.038154,653.944452,1039.900000,660.660000C1039.764833,663.660391,1039.818272,666.666310,1040.060000,669.660000C1040.360000,672.330000,1041.060000,674.950000,1041.440000,677.610000C1041.861891,681.183510,1042.018986,684.783323,1041.910000,688.380000C1042.024403,694.019339,1041.706808,699.659159,1040.960000,705.250000C1039.420000,714.780000,1042.110000,724.250000,1042.830000,733.890000C1043.188825,740.632283,1043.946820,747.347383,1045.100000,754C1045.650000,756.810000,1046.340000,759.590000,1046.720000,762.420000C1047.840000,770.830000,1046.200000,779.490000,1047.970000,787.790000C1048.790000,791.670000,1050.270000,796.030000,1048.090000,799.350000C1047.410000,800.350000,1046.410000,801.200000,1045.670000,802.210000C1044.824666,803.170089,1044.557630,804.509087,1044.970000,805.720000C1045.400000,806.630000,1046.400000,807.230000,1046.650000,808.200000C1047.040000,809.730000,1045.440000,810.980000,1044,811.630000C1033.150000,816.530000,1019.160000,813.080000,1011.840000,803.690000C1013.100000,803.490000,1014.640000,802.580000,1014.670000,801.300000C1014.573866,800.027476,1014.297785,798.775010,1013.850000,797.580000C1013.261043,795.422543,1013.161959,793.160694,1013.560000,790.960000C1013.850000,789.420000,1014.370000,787.960000,1014.690000,786.410000C1014.990212,784.709855,1015.190556,782.993581,1015.290000,781.270000C1015.830887,775.075769,1017.048135,768.959348,1018.920000,763.030000C1020.740000,757.280000,1018.260000,751.460000,1017.610000,745.460000C1017.310000,742.620000,1017.440000,739.690000,1016.450000,737.010000C1015.850000,735.430000,1014.880000,734.010000,1014.290000,732.430000C1012.920000,728.740000,1013.740000,724.640000,1014.570000,720.800000C1008.660000,710.130000,1006.690000,697.410000,1004.460000,685.420000L1000.710000,665.220000C1000.150000,662.220000,999.540000,659.110000,997.710000,656.690000C995.766157,665.608088,995.002953,674.742993,995.440000,683.860000C995.666787,686.486868,995.633290,689.129724,995.340000,691.750000C994.880000,694.650000,993.670000,697.380000,992.960000,700.220000C991.410000,706.490000,992.320000,713.070000,991.960000,719.520000C991.820000,722.130000,991.490000,724.720000,991.380000,727.330000C990.890000,738.850000,994.770000,750.050000,998.600000,760.920000C1000.950000,767.590000,1001.470000,775.170000,1002.600000,782.150000C1003.600000,788.840000,1004.710000,795.530000,1005.240000,802.280000C1005.730000,808.480000,1005.950000,815.190000,1009.810000,820.060000C1006.280000,822.350000,1002.640000,824.680000,998.510000,825.470000C993.697074,826.222991,988.772390,825.267772,984.590000,822.770000C980.431291,820.283381,976.714119,817.123785,973.590000,813.420000C974.400000,813.140000,974.690000,811.960000,974.770000,811.110000C975.970000,798.450000,971.160000,786.110000,969.340000,773.510000C968.430216,767.197717,968.269101,760.800075,968.860000,754.450000C969.090000,752.060000,969.420000,749.670000,969.510000,747.270000C969.990000,734.760000,963.960000,722.710000,964.180000,710.190000C964.280000,704.320000,961.180000,698.540000,959.660000,692.870000C958.350000,687.870000,958.310000,682.570000,958.280000,677.370000L958.030000,636.370000C958.030000,630.830000,958.030000,625.150000,959.820000,619.920000C962.020000,613.620000,959.500000,606.390000,959.120000,599.730000C969.511322,603.023350,980.448435,604.243115,991.310000,603.320000Z" transform="matrix(1 0 0 1 -43.21000000000000 -57.79000000000000)" fill="rgb(105,103,145)" stroke="none" stroke-width="1"/><path id="ei9agu7b7e1j10" d="M1017.570000,493C1017.313001,485.929144,1018.416315,478.874724,1020.820000,472.220000C1021.740000,469.670000,1022.820000,467.080000,1022.730000,464.370000C1022.600000,461.850000,1021.400000,459.540000,1020.310000,457.260000C1016.550000,449.410000,1013.910000,441.090000,1011.310000,432.790000L1006.310000,417.140000C1004.679810,415.944575,1003.205093,414.550480,1001.920000,412.990000C999.254705,409.908400,997.493164,406.149984,996.830000,402.130000C996.185450,398.081185,997.198276,393.943377,999.640000,390.650000C1000.718135,389.065345,1002.427566,388.022920,1004.330000,387.790000C1006.008413,387.827099,1007.598435,388.549836,1008.730000,389.790000C1010.379529,391.671899,1011.655592,393.850709,1012.490000,396.210000C1014.120000,400.050000,1015.780000,404.050000,1015.630000,408.210000C1015.490000,411.670000,1014.200000,415.530000,1016.230000,418.340000C1022.870000,427.560000,1027.900000,438.150000,1033.160000,448.220000C1034.501737,450.619534,1035.645529,453.124505,1036.580000,455.710000C1037.864584,459.900107,1038.472226,464.268374,1038.380000,468.650000C1038.380000,476.840000,1037.300000,485,1036.180000,493.120000C1035.470000,498.210000,1034.540000,503.750000,1030.690000,507.120000C1026.690000,502,1022.670000,497,1017.570000,493Z" transform="matrix(1 0 0 1 -43.21000000000000 -57.79000000000000)" fill="rgb(160,97,106)" stroke="none" stroke-width="1"/><circle id="ei9agu7b7e1j11" r="20.750000" transform="matrix(1 0 0 1 948.91999999999996 418.36000000000001)" fill="rgb(160,97,106)" stroke="none" stroke-width="1"/><path id="ei9agu7b7e1j12" d="M1002.180000,498C1002.680000,501.750000,1004.690000,505.110000,1006.650000,508.350000C1007.830000,510.350000,1009.340000,512.480000,1011.650000,512.700000C1005.638014,515.855122,999.322604,518.394688,992.800000,520.280000C990.583071,521.024849,988.258692,521.399858,985.920000,521.390000C983.938190,521.242148,981.998229,520.744461,980.190000,519.920000C972.176965,516.430484,966.208947,509.456122,964,501C966.583447,501.068822,969.167106,500.871110,971.710000,500.410000C973.162118,500.298474,974.515641,499.632455,975.490000,498.550000C976.069456,497.536281,976.340533,496.375513,976.270000,495.210000C976.370000,491.750000,976.380000,488.280000,976.270000,484.820000C981.368649,484.495028,986.483124,485.125859,991.350000,486.680000C993.350000,487.330000,995.350000,488.110000,997.350000,488.620000C998.610000,488.940000,1002.080000,488.620000,1003.010000,489.350000C1004.540000,490.380000,1001.830000,495.450000,1002.180000,498Z" transform="matrix(1 0 0 1 -43.21000000000000 -57.79000000000000)" fill="rgb(160,97,106)" stroke="none" stroke-width="1"/><path id="ei9agu7b7e1j13" d="M993.060000,510.610000C993.526502,505.002866,997.531680,500.324785,1003,499C1005.140000,498.520000,1007.460000,498.580000,1009.370000,497.520000C1012.650000,495.690000,1013.640000,491.230000,1016.790000,489.180000C1019.940000,487.130000,1024.410000,488.270000,1027.150000,490.860000C1029.890000,493.450000,1031.280000,497.140000,1032.400000,500.750000C1034.072057,505.631196,1034.979439,510.741549,1035.090000,515.900000C1035.131708,516.843562,1034.982037,517.785806,1034.650000,518.670000C1034.057027,519.702123,1033.308200,520.636470,1032.430000,521.440000C1030.055545,524.104730,1028.960199,527.671906,1029.430000,531.210000C1029.714180,534.503592,1029.412861,537.821486,1028.540000,541.010000C1026.540000,549.830000,1024.540000,558.640000,1022.930000,567.540000C1022.552226,569.178018,1022.427447,570.864217,1022.560000,572.540000C1022.870000,574.950000,1024.200000,577.230000,1023.910000,579.640000C1023.626796,580.761916,1023.416358,581.900954,1023.280000,583.050000C1023.345343,583.919695,1023.547845,584.773580,1023.880000,585.580000C1026.150000,592.170000,1032.280000,607.270000,1032.220000,614.250000C1021.570000,611.520000,1005.870000,610.910000,994.870000,610.860000C991.844971,610.828342,988.820469,610.961875,985.810000,611.260000C978.580000,612.040000,971.180000,614.150000,964.170000,612.200000C957.660000,610.390000,951.900000,605.200000,945.170000,605.850000C943.710000,602.030000,945.430000,589.280000,946.800000,585.420000C952.141008,570.220941,953.179196,553.841787,949.800000,538.090000C948.570000,532.430000,950.260000,526.420000,948.890000,520.800000C948.639607,519.470283,948.129919,518.202857,947.390000,517.070000C946.632373,515.926350,945.341524,515.250730,943.970000,515.280000C943.845368,506.240053,944.683423,497.212523,946.470000,488.350000C947.130000,485.200000,948.470000,481.480000,951.700000,480.940000C954.560000,480.450000,956.960000,482.870000,959.260000,484.640000C961.618272,486.465479,964.349622,487.749214,967.260000,488.400000C968.431751,488.539586,969.554816,488.950464,970.540000,489.600000C971.910000,490.740000,972.110000,492.790000,973.230000,494.180000C975.230000,496.670000,979.700000,496.460000,981.120000,499.330000C981.430455,500.184884,981.681060,501.060331,981.870000,501.950000C982.541710,503.655378,983.686633,505.133370,985.170000,506.210000C987.397466,508.304117,990.107749,509.815555,993.060000,510.610000Z" transform="matrix(1 0 0 1 -43.21000000000000 -53.92827514000002)" fill="rgb(248,109,112)" stroke="none" stroke-width="1"/><path id="ei9agu7b7e1j14" d="M975.270000,454.090000C974.910000,452.720000,974.970000,451.090000,976.070000,450.170000C976.620000,449.740000,977.340000,449.580000,977.930000,449.170000C978.761503,448.471181,979.441995,447.610359,979.930000,446.640000C983.011338,442.328029,988.755028,440.869918,993.520000,443.190000C997.130000,445.080000,999.310000,448.860000,1002.520000,451.410000C1004.150000,452.730000,1006.040000,453.710000,1007.680000,455.030000C1010.964540,457.867214,1013.299594,461.643788,1014.370000,465.850000C1015.432848,470.026605,1016.052933,474.303521,1016.220000,478.610000C1016.390672,479.902468,1016.339947,481.214566,1016.070000,482.490000C1015.737665,483.559833,1015.241800,484.571804,1014.600000,485.490000C1011.300000,490.490000,1006.950000,495.030000,1001.500000,497.610000C996.050000,500.190000,989.420000,500.610000,984.040000,497.910000C983.498741,497.691306,983.033047,497.319445,982.700000,496.840000C982.394197,496.109897,982.320868,495.303279,982.490000,494.530000C982.781625,491.473628,982.177018,488.398470,980.750000,485.680000C979.750000,483.680000,978.250000,481.960000,977.450000,479.890000C976.706097,477.572969,976.387632,475.140442,976.510000,472.710000C976.420000,466.420000,976.850000,460.150000,975.270000,454.090000Z" transform="matrix(1 0 0 1 -43.21000000000000 -57.79000000000000)" fill="rgb(45,41,61)" stroke="none" stroke-width="1"/></g><path id="ei9agu7b7e1j15" d="M1007.720000,808.220000C1006.157483,808.265527,1004.640826,808.758354,1003.350000,809.640000C1002.412006,810.529830,1001.775659,811.690637,1001.530000,812.960000C1000.813009,815.492344,1001.252273,818.212119,1002.730000,820.390000C1003.626904,821.505042,1004.793797,822.372468,1006.120000,822.910000C1010.750000,824.910000,1016.040000,823.460000,1020.860000,822.010000L1039.740000,816.320000C1040.890872,816.084643,1041.953727,815.534174,1042.810000,814.730000C1043.873968,813.297766,1043.906153,811.346545,1042.890000,809.880000C1041.874598,808.469812,1040.490758,807.366199,1038.890000,806.690000C1033.010000,803.830000,1026.390000,803.170000,1019.940000,803.050000C1017.540000,803.050000,1015.180000,802.480000,1013.540000,804.330000C1012.680000,805.330000,1012.840000,806.390000,1011.540000,807.240000C1010.358468,807.854765,1009.051561,808.190045,1007.720000,808.220000Z" transform="matrix(1 0 0 1 -43.21000000000000 -57.79000000000000)" fill="rgb(63,61,86)" stroke="none" stroke-width="1"/></g></g><ellipse id="ei9agu7b7e1j16" rx="57.010000" ry="10.960000" transform="matrix(1 0 0 1 193.50000000000000 750.88999999999999)" opacity="0" fill="rgb(108,99,255)" stroke="none" stroke-width="1"/><g id="ei9agu7b7e1j17" transform="matrix(0 -1 1 0 -562.50998199499998 947.33001800499994)" opacity="0"><ellipse id="ei9agu7b7e1j18" rx="6.640000" ry="8.690000" transform="matrix(1 0 0 1 192.55000000000001 746.23000000000002)" fill="rgb(63,61,86)" stroke="none" stroke-width="1"/><ellipse id="ei9agu7b7e1j19" rx="6.640000" ry="8.690000" transform="matrix(1 0 0 1 192.55000000000001 735.61000000000001)" fill="rgb(63,61,86)" stroke="none" stroke-width="1"/><ellipse id="ei9agu7b7e1j20" rx="6.640000" ry="8.690000" transform="matrix(1 0 0 1 192.55000000000001 724.99000000000001)" fill="rgb(63,61,86)" stroke="none" stroke-width="1"/><ellipse id="ei9agu7b7e1j21" rx="6.640000" ry="8.690000" transform="matrix(1 0 0 1 192.55000000000001 714.37000000000000)" fill="rgb(63,61,86)" stroke="none" stroke-width="1"/><ellipse id="ei9agu7b7e1j22" rx="6.640000" ry="8.690000" transform="matrix(1 0 0 1 192.55000000000001 703.75000000000000)" fill="rgb(63,61,86)" stroke="none" stroke-width="1"/><ellipse id="ei9agu7b7e1j23" rx="6.640000" ry="8.690000" transform="matrix(1 0 0 1 192.55000000000001 693.13000000000000)" fill="rgb(63,61,86)" stroke="none" stroke-width="1"/><ellipse id="ei9agu7b7e1j24" rx="6.640000" ry="8.690000" transform="matrix(1 0 0 1 192.55000000000001 682.50999999999999)" fill="rgb(63,61,86)" stroke="none" stroke-width="1"/><path id="ei9agu7b7e1j25" d="M260.610000,667.620000C261.515044,666.464170,262.340288,665.248020,263.080000,663.980000L245.640000,661.110000L264.500000,661.260000C268.155465,653.300227,268.376055,644.187318,265.110000,636.060000L239.800000,649.190000L263.140000,632C257.175280,621.708296,245.965385,615.606072,234.084137,616.183137C222.202889,616.760202,211.637124,623.920057,206.697851,634.741361C201.758577,645.562665,203.271762,658.235833,210.620000,667.590000C209.209669,669.388510,207.996078,671.332939,207,673.390000L229.640000,685.150000L205.500000,677.050000C202.054889,687.229322,203.980552,698.459845,210.620000,706.910000C200.370850,719.947648,201.861735,738.672693,214.044792,749.924291C226.227848,761.175889,245.012152,761.175889,257.195208,749.924291C269.378265,738.672693,270.869150,719.947648,260.620000,706.910000C269.686763,695.371356,269.686763,679.128644,260.620000,667.590000Z" transform="matrix(1 0 0 1 -43.21000000000000 -57.79000000000000)" fill="rgb(108,99,255)" stroke="none" stroke-width="1"/><path id="ei9agu7b7e1j26" d="M203.820000,687.280000C203.808292,694.412064,206.204282,701.339293,210.620000,706.940000C200.370850,719.977648,201.861735,738.702693,214.044792,749.954291C226.227848,761.205889,245.012152,761.205889,257.195208,749.954291C269.378265,738.702693,270.869150,719.977648,260.620000,706.940000C264.870000,701.530000,203.820000,683.710000,203.820000,687.280000Z" transform="matrix(1 0 0 1 -43.21000000000000 -57.79000000000000)" opacity="0.1" fill="rgb(0,0,0)" stroke="none" stroke-width="1"/></g><path id="ei9agu7b7e1j27" d="M389.710000,575L389.710000,801Q364.950000,799.790000,340.220000,798.090000L332.710000,797.560000L332.710000,575C332.710000,572.660791,333.639247,570.417389,335.293318,568.763318C336.947389,567.109247,339.190791,566.180000,341.530000,566.180000L380.890000,566.180000C383.229209,566.180000,385.472611,567.109247,387.126682,568.763318C388.780753,570.417389,389.710000,572.660791,389.710000,575Z" transform="matrix(1 0 0 2 -43.21000000000000 -55.92000000000000)" fill="rgb(63,61,86)" stroke="none" stroke-width="1"/><path id="ei9agu7b7e1j28" d="M462.710000,803.810000L462.710000,424C462.710000,419.128849,466.658849,415.180000,471.530000,415.180000L510.890000,415.180000C513.229209,415.180000,515.472611,416.109247,517.126682,417.763318C518.780753,419.417389,519.710000,421.660791,519.710000,424L519.710000,804.800000Z" transform="matrix(1 0 0 2.50000000000000 -43.21000000000000 -57.79000000000000)" fill="rgb(63,61,86)" stroke="none" stroke-width="1"/><path id="ei9agu7b7e1j29" d="M592.710000,805L592.710000,503C592.710000,500.660791,593.639247,498.417389,595.293318,496.763318C596.947389,495.109247,599.190791,494.180000,601.530000,494.180000L640.890000,494.180000C643.229209,494.180000,645.472611,495.109247,647.126682,496.763318C648.780753,498.417389,649.710000,500.660791,649.710000,503L649.710000,804.350000Z" transform="matrix(1 0 0 2 -43.21000000000000 -57.79000000000000)" fill="rgb(63,61,86)" stroke="none" stroke-width="1"/><path id="ei9agu7b7e1j30" d="M779.710000,279L779.710000,801.350000Q751.210000,802.160000,722.710000,802.870000L722.710000,279C722.710000,276.660791,723.639247,274.417389,725.293318,272.763318C726.947389,271.109247,729.190791,270.180000,731.530000,270.180000L770.890000,270.180000C775.761151,270.180000,779.710000,274.128849,779.710000,279Z" transform="matrix(1 0 0 3.20000000000000 -43.21000000000000 -55.86000000000005)" fill="rgb(63,61,86)" stroke="none" stroke-width="1"/><path id="ei9agu7b7e1j31" d="M909.710000,384L909.710000,797C890.710000,797.920000,871.710000,798.570000,852.710000,799.150000L852.710000,384C852.710000,381.660791,853.639247,379.417389,855.293318,377.763318C856.947389,376.109247,859.190791,375.180000,861.530000,375.180000L900.890000,375.180000C905.761151,375.180000,909.710000,379.128849,909.710000,384Z" transform="matrix(1 0 0 2.50000000000000 -43.21000000000000 -57.79000000000000)" fill="rgb(63,61,86)" stroke="none" stroke-width="1"/><polyline id="ei9agu7b7e1j32" points="318.500000,385.410000 448.500000,240.410000 578.500000,313.410000 708.500000,89.410000 838.500000,196.410000" transform="matrix(1 0 0 0 0 240.41000366210938)" fill="none" stroke="rgb(63,61,86)" stroke-width="7" stroke-linecap="round" stroke-miterlimit="10"/><circle id="ei9agu7b7e1j33" r="28" transform="matrix(1 0 0 1 318 385.41000000000003)" opacity="0" fill="rgb(108,99,255)" stroke="none" stroke-width="1"/><circle id="ei9agu7b7e1j34" r="28" transform="matrix(1 0 0 1 448 240.41000000000000)" opacity="0" fill="rgb(108,99,255)" stroke="none" stroke-width="1"/><circle id="ei9agu7b7e1j35" r="28" transform="matrix(1 0 0 1 578 313.41000000000003)" opacity="0" fill="rgb(108,99,255)" stroke="none" stroke-width="1"/><circle id="ei9agu7b7e1j36" r="28" transform="matrix(1 0 0 1 708 89.41000000000000)" opacity="0" fill="rgb(108,99,255)" stroke="none" stroke-width="1"/><path id="ei9agu7b7e1j37" d="M955.660000,485.520000C951.456806,476.927194,946.322700,468.821948,940.350000,461.350000C939.102045,459.890679,937.965512,458.339646,936.950000,456.710000C934.800000,452.980000,934.160000,448.600000,932.800000,444.520000C929,433.080000,919.520000,423.890000,917.210000,412.060000C916.370000,407.760000,913.630000,404.060000,911.750000,400.060000C910.480000,397.390000,909.080000,394.570000,906.540000,393.060000C903.270000,391.060000,898.750000,391.980000,896.030000,394.660000C893.377831,397.486539,892.188212,401.384206,892.810000,405.210000C892.997250,406.951985,893.692786,408.600405,894.810000,409.950000C896.260000,411.580000,898.430000,412.320000,900.380000,413.300000C905.418719,415.854034,909.274354,420.257913,911.140000,425.590000C914.470000,435.240000,914.900000,445.460000,919.140000,454.780000C923.380000,464.100000,928.360000,473.040000,932.020000,482.570000C934.100000,487.980000,935.760000,493.570000,938.810000,498.570000C941.860000,503.570000,946.620000,507.760000,952.370000,508.510000C952.331042,504.885195,952.881554,501.278160,954,497.830000C955.250000,493.890000,957.470000,489.250000,955.660000,485.520000Z" transform="matrix(1 0 0 1 250.59000000000003 -56.04032592999968)" fill="rgb(160,97,106)" stroke="none" stroke-width="1"/><script><![CDATA[!function(t,n){"object"==typeof exports&&"undefined"!=typeof module?module.exports=n():"function"==typeof define&&define.amd?define(n):(t="undefined"!=typeof globalThis?globalThis:t||self).__SVGATOR_PLAYER__=n()}(this,(function(){"use strict";function t(n){return(t="function"==typeof Symbol&&"symbol"==typeof Symbol.iterator?function(t){return typeof t}:function(t){return t&&"function"==typeof Symbol&&t.constructor===Symbol&&t!==Symbol.prototype?"symbol":typeof t})(n)}function n(t,n){if(!(t instanceof n))throw new TypeError("Cannot call a class as a function")}function r(t,n){for(var r=0;r<n.length;r++){var e=n[r];e.enumerable=e.enumerable||!1,e.configurable=!0,"value"in e&&(e.writable=!0),Object.defineProperty(t,e.key,e)}}function e(t,n,e){return n&&r(t.prototype,n),e&&r(t,e),t}function i(t){return(i=Object.setPrototypeOf?Object.getPrototypeOf:function(t){return t.__proto__||Object.getPrototypeOf(t)})(t)}function o(t,n){return(o=Object.setPrototypeOf||function(t,n){return t.__proto__=n,t})(t,n)}function u(t,n){return!n||"object"!=typeof n&&"function"!=typeof n?function(t){if(void 0===t)throw new ReferenceError("this hasn't been initialised - super() hasn't been called");return t}(t):n}function a(t){var n=function(){if("undefined"==typeof Reflect||!Reflect.construct)return!1;if(Reflect.construct.sham)return!1;if("function"==typeof Proxy)return!0;try{return Boolean.prototype.valueOf.call(Reflect.construct(Boolean,[],(function(){}))),!0}catch(t){return!1}}();return function(){var r,e=i(t);if(n){var o=i(this).constructor;r=Reflect.construct(e,arguments,o)}else r=e.apply(this,arguments);return u(this,r)}}function l(t,n,r){return(l="undefined"!=typeof Reflect&&Reflect.get?Reflect.get:function(t,n,r){var e=function(t,n){for(;!Object.prototype.hasOwnProperty.call(t,n)&&null!==(t=i(t)););return t}(t,n);if(e){var o=Object.getOwnPropertyDescriptor(e,n);return o.get?o.get.call(r):o.value}})(t,n,r||t)}var f=Math.abs;function s(t){return t}function c(t,n,r){var e=1-r;return 3*r*e*(t*e+n*r)+r*r*r}function h(){var t=arguments.length>0&&void 0!==arguments[0]?arguments[0]:0,n=arguments.length>1&&void 0!==arguments[1]?arguments[1]:0,r=arguments.length>2&&void 0!==arguments[2]?arguments[2]:1,e=arguments.length>3&&void 0!==arguments[3]?arguments[3]:1;return t<0||t>1||r<0||r>1?null:f(t-n)<=1e-5&&f(r-e)<=1e-5?s:function(i){if(i<=0)return t>0?i*n/t:0===n&&r>0?i*e/r:0;if(i>=1)return r<1?1+(i-1)*(e-1)/(r-1):1===r&&t<1?1+(i-1)*(n-1)/(t-1):1;for(var o,u=0,a=1;u<a;){var l=c(t,r,o=(u+a)/2);if(f(i-l)<1e-5)break;l<i?u=o:a=o}return c(n,e,o)}}function v(){return 1}function y(t){return 1===t?1:0}function d(){var t=arguments.length>0&&void 0!==arguments[0]?arguments[0]:1,n=arguments.length>1&&void 0!==arguments[1]?arguments[1]:0;if(1===t){if(0===n)return y;if(1===n)return v}var r=1/t;return function(t){return t>=1?1:(t+=n*r)-t%r}}function g(t){var n=arguments.length>1&&void 0!==arguments[1]?arguments[1]:2;if(Number.isInteger(t))return t;var r=Math.pow(10,n);return Math.round(t*r)/r}var p=Math.PI/180;function m(t,n,r){return t>=.5?r:n}function b(t,n,r){return 0===t||n===r?n:t*(r-n)+n}function w(t,n,r){var e=b(t,n,r);return e<=0?0:e}function x(t,n,r){return 0===t?n:1===t?r:{x:b(t,n.x,r.x),y:b(t,n.y,r.y)}}function k(t,n,r){var e=function(t,n,r){return Math.round(b(t,n,r))}(t,n,r);return e<=0?0:e>=255?255:e}function A(t,n,r){return 0===t?n:1===t?r:{r:k(t,n.r,r.r),g:k(t,n.g,r.g),b:k(t,n.b,r.b),a:b(t,null==n.a?1:n.a,null==r.a?1:r.a)}}function _(t,n,r){if(0===t)return n;if(1===t)return r;var e=n.length;if(e!==r.length)return m(t,n,r);for(var i=[],o=0;o<e;o++)i.push(A(t,n[o],r[o]));return i}function S(t,n){for(var r=[],e=0;e<t;e++)r.push(n);return r}function O(t,n){if(--n<=0)return t;var r=(t=Object.assign([],t)).length;do{for(var e=0;e<r;e++)t.push(t[e])}while(--n>0);return t}var M,j=function(){function t(r){n(this,t),this.list=r,this.length=r.length}return e(t,[{key:"setAttribute",value:function(t,n){for(var r=this.list,e=0;e<this.length;e++)r[e].setAttribute(t,n)}},{key:"removeAttribute",value:function(t){for(var n=this.list,r=0;r<this.length;r++)n[r].removeAttribute(t)}},{key:"style",value:function(t,n){for(var r=this.list,e=0;e<this.length;e++)r[e].style[t]=n}}]),t}(),F=/-./g,P=function(t,n){return n.toUpperCase()};function B(t){return"function"==typeof t?t:m}function I(t){return t?"function"==typeof t?t:Array.isArray(t)?function(t){var n=arguments.length>1&&void 0!==arguments[1]?arguments[1]:s;if(!Array.isArray(t))return n;switch(t.length){case 1:return d(t[0])||n;case 2:return d(t[0],t[1])||n;case 4:return h(t[0],t[1],t[2],t[3])||n}return n}(t,null):function(t,n){var r=arguments.length>2&&void 0!==arguments[2]?arguments[2]:s;switch(t){case"linear":return s;case"steps":return d(n.steps||1,n.jump||0)||r;case"bezier":case"cubic-bezier":return h(n.x1||0,n.y1||0,n.x2||0,n.y2||0)||r}return r}(t.type,t.value,null):null}function R(t,n,r){var e=arguments.length>3&&void 0!==arguments[3]&&arguments[3],i=n.length-1;if(t<=n[0].t)return e?[0,0,n[0].v]:n[0].v;if(t>=n[i].t)return e?[i,1,n[i].v]:n[i].v;var o,u=n[0],a=null;for(o=1;o<=i;o++){if(!(t>n[o].t)){a=n[o];break}u=n[o]}return null==a?e?[i,1,n[i].v]:n[i].v:u.t===a.t?e?[o,1,a.v]:a.v:(t=(t-u.t)/(a.t-u.t),u.e&&(t=u.e(t)),e?[o,t,r(t,u.v,a.v)]:r(t,u.v,a.v))}function q(t,n){var r=arguments.length>2&&void 0!==arguments[2]?arguments[2]:null;return t&&t.length?"function"!=typeof n?null:("function"!=typeof r&&(r=null),function(e){var i=R(e,t,n);return null!=i&&r&&(i=r(i)),i}):null}function E(t,n){return t.t-n.t}function T(n,r,e,i,o){var u,a="@"===e[0],l="#"===e[0],f=M[e],s=m;switch(a?(u=e.substr(1),e=u.replace(F,P)):l&&(e=e.substr(1)),t(f)){case"function":if(s=f(i,o,R,I,e,a,r,n),l)return s;break;case"string":s=q(i,B(f));break;case"object":if((s=q(i,B(f.i),f.f))&&"function"==typeof f.u)return f.u(r,s,e,a,n)}return s?function(t,n,r){var e=arguments.length>3&&void 0!==arguments[3]&&arguments[3];if(e)return t instanceof j?function(e){return t.style(n,r(e))}:function(e){return t.style[n]=r(e)};if(Array.isArray(n)){var i=n.length;return function(e){var o=r(e);if(null==o)for(var u=0;u<i;u++)t[u].removeAttribute(n);else for(var a=0;a<i;a++)t[a].setAttribute(n,o)}}return function(e){var i=r(e);null==i?t.removeAttribute(n):t.setAttribute(n,i)}}(r,e,s,a):null}function N(n,r,e,i){if(!i||"object"!==t(i))return null;var o=null,u=null;return Array.isArray(i)?u=function(t){if(!t||!t.length)return null;for(var n=0;n<t.length;n++)t[n].e&&(t[n].e=I(t[n].e));return t.sort(E)}(i):(u=i.keys,o=i.data||null),u?T(n,r,e,u,o):null}function C(t,n,r){if(!r)return null;var e=[];for(var i in r)if(r.hasOwnProperty(i)){var o=N(t,n,i,r[i]);o&&e.push(o)}return e.length?e:null}function z(t,n){if(!n.duration||n.duration<0)return null;var r=function(t,n){if(!n)return null;var r=[];if(Array.isArray(n))for(var e=n.length,i=0;i<e;i++){var o=n[i];if(2===o.length){var u=null;if("string"==typeof o[0])u=t.getElementById(o[0]);else if(Array.isArray(o[0])){u=[];for(var a=0;a<o[0].length;a++)if("string"==typeof o[0][a]){var l=t.getElementById(o[0][a]);l&&u.push(l)}u=u.length?1===u.length?u[0]:new j(u):null}if(u){var f=C(t,u,o[1]);f&&(r=r.concat(f))}}}else for(var s in n)if(n.hasOwnProperty(s)){var c=t.getElementById(s);if(c){var h=C(t,c,n[s]);h&&(r=r.concat(h))}}return r.length?r:null}(t,n.elements);return r?function(t,n){var r=arguments.length>2&&void 0!==arguments[2]?arguments[2]:1/0,e=arguments.length>3&&void 0!==arguments[3]?arguments[3]:1,i=arguments.length>4&&void 0!==arguments[4]&&arguments[4],o=arguments.length>5&&void 0!==arguments[5]?arguments[5]:1,u=t.length,a=e>0?n:0;i&&r%2==0&&(a=n-a);var l=null;return function(f,s){var c=f%n,h=1+(f-c)/n;s*=e,i&&h%2==0&&(s=-s);var v=!1;if(h>r)c=a,v=!0,-1===o&&(c=e>0?0:n);else if(s<0&&(c=n-c),c===l)return!1;l=c;for(var y=0;y<u;y++)t[y](c);return v}}(r,n.duration,n.iterations||1/0,n.direction||1,!!n.alternate,n.fill||1):null}var L=function(){function t(r,e){var i=arguments.length>2&&void 0!==arguments[2]?arguments[2]:{};n(this,t),this._id=0,this._running=!1,this._rollingBack=!1,this._animations=r,this.duration=e.duration,this.alternate=e.alternate,this.fill=e.fill,this.iterations=e.iterations,this.direction=i.direction||1,this.speed=i.speed||1,this.fps=i.fps||100,this.offset=i.offset||0,this.rollbackStartOffset=0}return e(t,[{key:"_rollback",value:function(){var t=this,n=1/0,r=null;this.rollbackStartOffset=this.offset,this._rollingBack||(this._rollingBack=!0,this._running=!0);this._id=window.requestAnimationFrame((function e(i){if(t._rollingBack){null==r&&(r=i);var o=i-r,u=t.rollbackStartOffset-o,a=Math.round(u*t.speed);if(a>t.duration&&n!=1/0){var l=!!t.alternate&&a/t.duration%2>1,f=a%t.duration;a=(f+=l?t.duration:0)||t.duration}var s=t.fps?1e3/t.fps:0,c=Math.max(0,a);if(c<n-s){t.offset=c,n=c;for(var h=t._animations,v=h.length,y=0;y<v;y++)h[y](c,t.direction)}var d=!1;if(t.iterations>0&&-1===t.fill){var g=t.iterations*t.duration,p=g==a;a=p?0:a,t.offset=p?0:t.offset,d=a>g}a>0&&t.offset>=a&&!d?t._id=window.requestAnimationFrame(e):t.stop()}}))}},{key:"_start",value:function(){var t=this,n=arguments.length>0&&void 0!==arguments[0]?arguments[0]:0,r=-1/0,e=null,i={},o=function o(u){t._running=!0,null==e&&(e=u);var a=Math.round((u-e+n)*t.speed),l=t.fps?1e3/t.fps:0;if(a>r+l&&!t._rollingBack){t.offset=a,r=a;for(var f=t._animations,s=f.length,c=0,h=0;h<s;h++)i[h]?c++:(i[h]=f[h](a,t.direction),i[h]&&c++);if(c===s)return void t._stop()}t._id=window.requestAnimationFrame(o)};this._id=window.requestAnimationFrame(o)}},{key:"_stop",value:function(){this._id&&window.cancelAnimationFrame(this._id),this._running=!1,this._rollingBack=!1}},{key:"play",value:function(){!this._rollingBack&&this._running||(this._rollingBack=!1,this.rollbackStartOffset>this.duration&&(this.offset=this.rollbackStartOffset-(this.rollbackStartOffset-this.offset)%this.duration,this.rollbackStartOffset=0),this._start(this.offset))}},{key:"stop",value:function(){this._stop(),this.offset=0,this.rollbackStartOffset=0;var t=this.direction,n=this._animations;window.requestAnimationFrame((function(){for(var r=0;r<n.length;r++)n[r](0,t)}))}},{key:"reachedToEnd",value:function(){return this.iterations>0&&this.offset>=this.iterations*this.duration}},{key:"restart",value:function(){this._stop(),this.offset=0,this._start()}},{key:"pause",value:function(){this._stop()}},{key:"reverse",value:function(){this.direction=-this.direction}}],[{key:"build",value:function(n,r){return(n=function(t,n){if(M=n,!t||!t.root||!Array.isArray(t.animations))return null;for(var r=document.getElementsByTagName("svg"),e=!1,i=0;i<r.length;i++)if(r[i].id===t.root&&!r[i].svgatorAnimation){(e=r[i]).svgatorAnimation=!0;break}if(!e)return null;var o=t.animations.map((function(t){return z(e,t)})).filter((function(t){return!!t}));return o.length?{element:e,animations:o,animationSettings:t.animationSettings,options:t.options||void 0}:null}(n,r))?{el:n.element,options:n.options||{},player:new t(n.animations,n.animationSettings,n.options)}:null}}]),t}();!function(){for(var t=0,n=["ms","moz","webkit","o"],r=0;r<n.length&&!window.requestAnimationFrame;++r)window.requestAnimationFrame=window[n[r]+"RequestAnimationFrame"],window.cancelAnimationFrame=window[n[r]+"CancelAnimationFrame"]||window[n[r]+"CancelRequestAnimationFrame"];window.requestAnimationFrame||(window.requestAnimationFrame=function(n){var r=Date.now(),e=Math.max(0,16-(r-t)),i=window.setTimeout((function(){n(r+e)}),e);return t=r+e,i},window.cancelAnimationFrame=window.clearTimeout)}();var D=/\.0+$/g;function Q(t){return Number.isInteger(t)?t+"":t.toFixed(6).replace(D,"")}function U(t){var n=arguments.length>1&&void 0!==arguments[1]?arguments[1]:" ";return t&&t.length?t.map(Q).join(n):""}function V(t){return t?null==t.a||t.a>=1?"rgb("+t.r+","+t.g+","+t.b+")":"rgba("+t.r+","+t.g+","+t.b+","+t.a+")":"transparent"}var $={f:null,i:function(t,n,r){return 0===t?n:1===t?r:{x:w(t,n.x,r.x),y:w(t,n.y,r.y)}},u:function(t,n){return function(r){var e=n(r);t.setAttribute("rx",Q(e.x)),t.setAttribute("ry",Q(e.y))}}},G={f:null,i:function(t,n,r){return 0===t?n:1===t?r:{width:w(t,n.width,r.width),height:w(t,n.height,r.height)}},u:function(t,n){return function(r){var e=n(r);t.setAttribute("width",Q(e.width)),t.setAttribute("height",Q(e.height))}}},H=Math.sin,Y=Math.cos,Z=Math.acos,J=Math.asin,K=Math.tan,W=Math.atan2,X=Math.PI/180,tt=180/Math.PI,nt=Math.sqrt,rt=function(){function t(){var r=arguments.length>0&&void 0!==arguments[0]?arguments[0]:1,e=arguments.length>1&&void 0!==arguments[1]?arguments[1]:0,i=arguments.length>2&&void 0!==arguments[2]?arguments[2]:0,o=arguments.length>3&&void 0!==arguments[3]?arguments[3]:1,u=arguments.length>4&&void 0!==arguments[4]?arguments[4]:0,a=arguments.length>5&&void 0!==arguments[5]?arguments[5]:0;n(this,t),this.m=[r,e,i,o,u,a],this.i=null,this.w=null,this.s=null}return e(t,[{key:"determinant",get:function(){var t=this.m;return t[0]*t[3]-t[1]*t[2]}},{key:"isIdentity",get:function(){if(null===this.i){var t=this.m;this.i=1===t[0]&&0===t[1]&&0===t[2]&&1===t[3]&&0===t[4]&&0===t[5]}return this.i}},{key:"point",value:function(t,n){var r=this.m;return{x:r[0]*t+r[2]*n+r[4],y:r[1]*t+r[3]*n+r[5]}}},{key:"translateSelf",value:function(){var t=arguments.length>0&&void 0!==arguments[0]?arguments[0]:0,n=arguments.length>1&&void 0!==arguments[1]?arguments[1]:0;if(!t&&!n)return this;var r=this.m;return r[4]+=r[0]*t+r[2]*n,r[5]+=r[1]*t+r[3]*n,this.w=this.s=this.i=null,this}},{key:"rotateSelf",value:function(){var t=arguments.length>0&&void 0!==arguments[0]?arguments[0]:0;if(t%=360){var n=H(t*=X),r=Y(t),e=this.m,i=e[0],o=e[1];e[0]=i*r+e[2]*n,e[1]=o*r+e[3]*n,e[2]=e[2]*r-i*n,e[3]=e[3]*r-o*n,this.w=this.s=this.i=null}return this}},{key:"scaleSelf",value:function(){var t=arguments.length>0&&void 0!==arguments[0]?arguments[0]:1,n=arguments.length>1&&void 0!==arguments[1]?arguments[1]:1;if(1!==t||1!==n){var r=this.m;r[0]*=t,r[1]*=t,r[2]*=n,r[3]*=n,this.w=this.s=this.i=null}return this}},{key:"skewSelf",value:function(t,n){if(n%=360,(t%=360)||n){var r=this.m,e=r[0],i=r[1],o=r[2],u=r[3];t&&(t=K(t*X),r[2]+=e*t,r[3]+=i*t),n&&(n=K(n*X),r[0]+=o*n,r[1]+=u*n),this.w=this.s=this.i=null}return this}},{key:"resetSelf",value:function(){var t=arguments.length>0&&void 0!==arguments[0]?arguments[0]:1,n=arguments.length>1&&void 0!==arguments[1]?arguments[1]:0,r=arguments.length>2&&void 0!==arguments[2]?arguments[2]:0,e=arguments.length>3&&void 0!==arguments[3]?arguments[3]:1,i=arguments.length>4&&void 0!==arguments[4]?arguments[4]:0,o=arguments.length>5&&void 0!==arguments[5]?arguments[5]:0,u=this.m;return u[0]=t,u[1]=n,u[2]=r,u[3]=e,u[4]=i,u[5]=o,this.w=this.s=this.i=null,this}},{key:"recomposeSelf",value:function(){var t=arguments.length>0&&void 0!==arguments[0]?arguments[0]:null,n=arguments.length>1&&void 0!==arguments[1]?arguments[1]:null,r=arguments.length>2&&void 0!==arguments[2]?arguments[2]:null,e=arguments.length>3&&void 0!==arguments[3]?arguments[3]:null,i=arguments.length>4&&void 0!==arguments[4]?arguments[4]:null;return this.isIdentity||this.resetSelf(),t&&(t.x||t.y)&&this.translateSelf(t.x,t.y),n&&this.rotateSelf(n),r&&(r.x&&this.skewSelf(r.x,0),r.y&&this.skewSelf(0,r.y)),!e||1===e.x&&1===e.y||this.scaleSelf(e.x,e.y),i&&(i.x||i.y)&&this.translateSelf(i.x,i.y),this}},{key:"decompose",value:function(){var t=arguments.length>0&&void 0!==arguments[0]?arguments[0]:0,n=arguments.length>1&&void 0!==arguments[1]?arguments[1]:0,r=this.m,e=r[0]*r[0]+r[1]*r[1],i=[[r[0],r[1]],[r[2],r[3]]],o=nt(e);if(0===o)return{origin:{x:r[4],y:r[5]},translate:{x:t,y:n},scale:{x:0,y:0},skew:{x:0,y:0},rotate:0};i[0][0]/=o,i[0][1]/=o;var u=r[0]*r[3]-r[1]*r[2]<0;u&&(o=-o);var a=i[0][0]*i[1][0]+i[0][1]*i[1][1];i[1][0]-=i[0][0]*a,i[1][1]-=i[0][1]*a;var l=nt(i[1][0]*i[1][0]+i[1][1]*i[1][1]);if(0===l)return{origin:{x:r[4],y:r[5]},translate:{x:t,y:n},scale:{x:o,y:0},skew:{x:0,y:0},rotate:0};i[1][0]/=l,i[1][1]/=l,a/=l;var f=0;return i[1][1]<0?(f=Z(i[1][1])*tt,i[0][1]<0&&(f=360-f)):f=J(i[0][1])*tt,u&&(f=-f),a=W(a,nt(i[0][0]*i[0][0]+i[0][1]*i[0][1]))*tt,u&&(a=-a),{origin:{x:r[4],y:r[5]},translate:{x:t,y:n},scale:{x:o,y:l},skew:{x:a,y:0},rotate:f}}},{key:"toString",value:function(){return null===this.s&&(this.s="matrix("+this.m.map(it).join(" ")+")"),this.s}}]),t}(),et=/\.0+$/;function it(t){return Number.isInteger(t)?t:t.toFixed(14).replace(et,"")}function ot(t,n,r){return t+(n-t)*r}function ut(t,n,r){var e=arguments.length>3&&void 0!==arguments[3]&&arguments[3],i={x:ot(t.x,n.x,r),y:ot(t.y,n.y,r)};return e&&(i.a=at(t,n)),i}function at(t,n){return Math.atan2(n.y-t.y,n.x-t.x)}Object.freeze({M:2,L:2,Z:0,H:1,V:1,C:6,Q:4,T:2,S:4,A:7});var lt={},ft=null;function st(n){var r=function(){if(ft)return ft;if("object"!==("undefined"==typeof document?"undefined":t(document)))return{};var n=document.createElementNS("http://www.w3.org/2000/svg","svg");return n.style.position="absolute",n.style.opacity="0.01",n.style.zIndex="-9999",n.style.left="-9999px",n.style.width="1px",n.style.height="1px",ft={svg:n}}().svg;if(!r)return function(t){return null};var e=document.createElementNS(r.namespaceURI,"path");e.setAttributeNS(null,"d",n),e.setAttributeNS(null,"fill","none"),e.setAttributeNS(null,"stroke","none"),r.appendChild(e);var i=e.getTotalLength();return function(t){var n=e.getPointAtLength(i*t);return{x:n.x,y:n.y}}}function ct(t){return lt[t]?lt[t]:lt[t]=st(t)}function ht(t,n,r,e){if(!t||!e)return!1;var i=["M",t.x,t.y];if(n&&r&&(i.push("C"),i.push(n.x),i.push(n.y),i.push(r.x),i.push(r.y)),n?!r:r){var o=n||r;i.push("Q"),i.push(o.x),i.push(o.y)}return n||r||i.push("L"),i.push(e.x),i.push(e.y),i.join(" ")}function vt(t,n,r,e){var i=arguments.length>4&&void 0!==arguments[4]?arguments[4]:1,o=ht(t,n,r,e),u=ct(o);try{return u(i)}catch(t){return null}}function yt(t,n,r,e){var i=1-e;return i*i*t+2*i*e*n+e*e*r}function dt(t,n,r,e){return 2*(1-e)*(n-t)+2*e*(r-n)}function gt(t,n,r,e){var i=arguments.length>4&&void 0!==arguments[4]&&arguments[4],o=vt(t,n,null,r,e);return o||(o={x:yt(t.x,n.x,r.x,e),y:yt(t.y,n.y,r.y,e)}),i&&(o.a=pt(t,n,r,e)),o}function pt(t,n,r,e){return Math.atan2(dt(t.y,n.y,r.y,e),dt(t.x,n.x,r.x,e))}function mt(t,n,r,e,i){var o=i*i;return i*o*(e-t+3*(n-r))+3*o*(t+r-2*n)+3*i*(n-t)+t}function bt(t,n,r,e,i){var o=1-i;return 3*(o*o*(n-t)+2*o*i*(r-n)+i*i*(e-r))}function wt(t,n,r,e,i){var o=arguments.length>5&&void 0!==arguments[5]&&arguments[5],u=vt(t,n,r,e,i);return u||(u={x:mt(t.x,n.x,r.x,e.x,i),y:mt(t.y,n.y,r.y,e.y,i)}),o&&(u.a=xt(t,n,r,e,i)),u}function xt(t,n,r,e,i){return Math.atan2(bt(t.y,n.y,r.y,e.y,i),bt(t.x,n.x,r.x,e.x,i))}function kt(t,n,r){var e=arguments.length>3&&void 0!==arguments[3]&&arguments[3];if(_t(n)){if(St(r))return gt(n,r.start,r,t,e)}else if(_t(r)){if(n.end)return gt(n,n.end,r,t,e)}else{if(n.end)return r.start?wt(n,n.end,r.start,r,t,e):gt(n,n.end,r,t,e);if(r.start)return gt(n,r.start,r,t,e)}return ut(n,r,t,e)}function At(t,n,r){var e=kt(t,n,r,!0);return e.a=function(t){var n=arguments.length>1&&void 0!==arguments[1]&&arguments[1];return n?t+Math.PI:t}(e.a)/p,e}function _t(t){return!t.type||"corner"===t.type}function St(t){return null!=t.start&&!_t(t)}var Ot=new rt;var Mt={f:Q,i:b},jt={f:Q,i:function(t,n,r){var e=b(t,n,r);return e<=0?0:e>=1?1:e}};function Ft(t,n,r,e,i,o,u,a){return n=function(t,n,r){for(var e,i,o,u=t.length-1,a={},l=0;l<=u;l++)(e=t[l]).e&&(e.e=n(e.e)),e.v&&"g"===(i=e.v).t&&i.r&&(o=r.getElementById(i.r))&&(a[i.r]=o.querySelectorAll("stop"));return a}(t,e,a),function(e){var i,o=r(e,t,Pt);return o?"c"===o.t?V(o.v):"g"===o.t?(n[o.r]&&function(t,n){for(var r=0,e=t.length;r<e;r++)t[r].setAttribute("stop-color",V(n[r]))}(n[o.r],o.v),(i=o.r)?"url(#"+i+")":"none"):"none":"none"}}function Pt(t,n,r){if(0===t)return n;if(1===t)return r;if(n&&r){var e=n.t;if(e===r.t)switch(n.t){case"c":return{t:e,v:A(t,n.v,r.v)};case"g":if(n.r===r.r)return{t:e,v:_(t,n.v,r.v),r:n.r}}}return m(t,n,r)}var Bt={fill:Ft,"fill-opacity":jt,stroke:Ft,"stroke-opacity":jt,"stroke-width":Mt,"stroke-dashoffset":{f:Q,i:b},"stroke-dasharray":{f:function(t){var n=arguments.length>1&&void 0!==arguments[1]?arguments[1]:" ";return t&&t.length>0&&(t=t.map((function(t){return Math.floor(1e4*t)/1e4}))),U(t,n)},i:function(t,n,r){var e,i,o,u=n.length,a=r.length;if(u!==a)if(0===u)n=S(u=a,0);else if(0===a)a=u,r=S(u,0);else{var l=(o=(e=u)*(i=a)/function(t,n){for(var r;n;)r=n,n=t%n,t=r;return t||1}(e,i))<0?-o:o;n=O(n,Math.floor(l/u)),r=O(r,Math.floor(l/a)),u=a=l}for(var f=[],s=0;s<u;s++)f.push(g(w(t,n[s],r[s]),6));return f}},opacity:jt,transform:function(n,r,e,i){if(!(n=function(n,r){if(!n||"object"!==t(n))return null;var e=!1;for(var i in n)n.hasOwnProperty(i)&&(n[i]&&n[i].length?(n[i].forEach((function(t){t.e&&(t.e=r(t.e))})),e=!0):delete n[i]);return e?n:null}(n,i)))return null;var o=function(t,i,o){var u=arguments.length>3&&void 0!==arguments[3]?arguments[3]:null;return n[t]?e(i,n[t],o):r&&r[t]?r[t]:u};return r&&r.a&&n.o?function(t){var r=e(t,n.o,At);return Ot.recomposeSelf(r,o("r",t,b,0)+r.a,o("k",t,x),o("s",t,x),o("t",t,x)).toString()}:function(t){return Ot.recomposeSelf(o("o",t,kt,null),o("r",t,b,0),o("k",t,x),o("s",t,x),o("t",t,x)).toString()}},r:Mt,"#size":G,"#radius":$,_:function(t,n){if(Array.isArray(t))for(var r=0;r<t.length;r++)this[t[r]]=n;else this[t]=n}};return function(t){!function(t,n){if("function"!=typeof n&&null!==n)throw new TypeError("Super expression must either be null or a function");t.prototype=Object.create(n&&n.prototype,{constructor:{value:t,writable:!0,configurable:!0}}),n&&o(t,n)}(u,t);var r=a(u);function u(){return n(this,u),r.apply(this,arguments)}return e(u,null,[{key:"build",value:function(t){var n=l(i(u),"build",this).call(this,t,Bt);n.el,n.options;var r=n.player;return function(t){t.play()}(r),r}}]),u}(L)}));
__SVGATOR_PLAYER__.build({"root":"ei9agu7b7e1j1","animations":[{"duration":2500,"direction":1,"iterations":1,"fill":1,"alternate":false,"elements":{"ei9agu7b7e1j3":{"transform":{"data":{"t":{"x":-940.06,"y":-543.9099884033203}},"keys":{"o":[{"t":1500,"v":{"x":1240.06,"y":543.9099884033203,"type":"corner"}},{"t":2500,"v":{"x":940.06,"y":543.9099884033203,"type":"corner"}}]}}},"ei9agu7b7e1j16":{"opacity":[{"t":0,"v":0},{"t":500,"v":1}]},"ei9agu7b7e1j17":{"transform":{"data":{"o":{"x":192.410018005,"y":754.92,"type":"corner"},"t":{"x":-192.410018005,"y":-754.92}},"keys":{"r":[{"t":0,"v":-90},{"t":500,"v":0}]}},"opacity":[{"t":0,"v":0},{"t":500,"v":1}]},"ei9agu7b7e1j27":{"transform":{"data":{"o":{"x":-43.21,"y":-55.92,"type":"corner"}},"keys":{"s":[{"t":0,"v":{"x":1,"y":2}},{"t":500,"v":{"x":1,"y":1}}]}}},"ei9agu7b7e1j28":{"transform":{"data":{"o":{"x":-43.21,"y":-57.79,"type":"corner"}},"keys":{"s":[{"t":500,"v":{"x":1,"y":2.5}},{"t":1000,"v":{"x":1,"y":1}}]}}},"ei9agu7b7e1j29":{"transform":{"data":{"o":{"x":-43.21,"y":-57.79,"type":"corner"}},"keys":{"s":[{"t":1000,"v":{"x":1,"y":2}},{"t":1500,"v":{"x":1,"y":1}}]}}},"ei9agu7b7e1j30":{"transform":{"data":{"o":{"x":-43.21,"y":-55.86000000000005,"type":"corner"}},"keys":{"s":[{"t":1500,"v":{"x":1,"y":3.2}},{"t":2000,"v":{"x":1,"y":1}}]}}},"ei9agu7b7e1j31":{"transform":{"data":{"o":{"x":-43.21,"y":-57.79,"type":"corner"}},"keys":{"s":[{"t":2000,"v":{"x":1,"y":2.5}},{"t":2500,"v":{"x":1,"y":1}}]}}},"ei9agu7b7e1j32":{"transform":{"data":{"o":{"x":578.5,"y":240.41000366210938,"type":"corner"},"t":{"x":-578.5,"y":-237.41000366210938}},"keys":{"s":[{"t":1500,"v":{"x":1,"y":0}},{"t":2500,"v":{"x":1,"y":1}}]}}},"ei9agu7b7e1j33":{"opacity":[{"t":500,"v":0},{"t":1000,"v":1}]},"ei9agu7b7e1j34":{"opacity":[{"t":1000,"v":0},{"t":1500,"v":1}]},"ei9agu7b7e1j35":{"opacity":[{"t":1500,"v":0},{"t":2000,"v":1}]},"ei9agu7b7e1j36":{"opacity":[{"t":2000,"v":0},{"t":2500,"v":1}]},"ei9agu7b7e1j37":{"transform":{"keys":{"o":[{"t":1500,"v":{"x":250.59000000000003,"y":-56.04032592999968,"type":"corner"}},{"t":2500,"v":{"x":-50.59000000000003,"y":-56.04032592999968,"type":"corner"}}]}}}}}],"options":{"start":"load","hover":"freeze","click":"freeze","scroll":25,"font":"embed","exportedIds":"unique","title":"visual data"},"animationSettings":{"duration":2500,"direction":1,"iterations":1,"fill":1,"alternate":false}})]]></script></svg>